<svg xmlns="http://www.w3.org/2000/svg" xmlns:xlink="http://www.w3.org/1999/xlink" width="32" height="32" viewBox="0 0 32 32" fill="none">
<circle cx="16" cy="16" r="16"   fill="#1F7CFF" fill-opacity="0.1">
</circle>
<path d="M22 13C21.95 12.9431 21.899 12.8872 21.8469 12.8323C21.7948 12.7774 21.7417 12.7235 21.6876 12.6706C21.6335 12.6177 21.5784 12.5658 21.5223 12.515C21.4662 12.4642 21.4092 12.4144 21.3512 12.3658C21.2932 12.3171 21.2343 12.2696 21.1746 12.2231C21.1148 12.1767 21.0542 12.1314 20.9927 12.0873C20.9312 12.0431 20.8689 12.0002 20.8058 11.9584C20.7427 11.9167 20.6788 11.8761 20.6141 11.8367C20.5495 11.7974 20.4841 11.7593 20.418 11.7224C20.3519 11.6855 20.2851 11.6499 20.2177 11.6155C20.1502 11.5812 20.0822 11.5481 20.0135 11.5163C19.9448 11.4846 19.8755 11.4541 19.8057 11.425C19.7358 11.3958 19.6654 11.368 19.5945 11.3415C19.5236 11.315 19.4522 11.2899 19.3804 11.2661C19.3085 11.2423 19.2363 11.2199 19.1636 11.1989C19.0909 11.1778 19.0178 11.1581 18.9443 11.1399C18.8709 11.1216 18.7971 11.1047 18.723 11.0892C18.6489 11.0737 18.5746 11.0597 18.5 11.047C18.4253 11.0343 18.3505 11.0231 18.2755 11.0132C18.2004 11.0034 18.1252 10.995 18.0499 10.988C17.9745 10.981 17.899 10.9754 17.8235 10.9713C17.7479 10.9672 17.6722 10.9645 17.5966 10.9632C17.5209 10.9619 17.4452 10.9621 17.3695 10.9637C17.2939 10.9653 17.2183 10.9683 17.1427 10.9728C17.0671 10.9773 16.9917 10.9832 16.9164 10.9905C16.841 10.9978 16.7659 11.0065 16.6909 11.0167C16.6159 11.0269 16.5411 11.0385 16.4665 11.0515C16.3919 11.0645 16.3177 11.0788 16.2436 11.0947C16.1696 11.1105 16.0959 11.1277 16.0226 11.1463C15.9492 11.1649 15.8762 11.1849 15.8036 11.2062C15.731 11.2276 15.6588 11.2503 15.5871 11.2744C15.5153 11.2985 15.444 11.324 15.3733 11.3508C15.3025 11.3776 15.2322 11.4057 15.1625 11.4352C15.0928 11.4646 15.0236 11.4954 14.9551 11.5275C14.8865 11.5595 14.8186 11.5929 14.7513 11.6275C14.684 11.6622 14.6174 11.6981 14.5515 11.7353C14.4855 11.7724 14.4203 11.8109 14.3559 11.8505C14.2914 11.8901 14.2277 11.931 14.1647 11.973C14.1018 12.0151 14.0397 12.0583 13.9784 12.1027C13.9171 12.1471 13.8567 12.1927 13.7971 12.2394C13.7375 12.286 13.6789 12.3339 13.6211 12.3828C13.5634 12.4317 13.5065 12.4817 13.4507 12.5327C13.3948 12.5838 13.3399 12.6359 13.286 12.6891C13.2322 12.7422 13.1793 12.7963 13.1274 12.8515C13.0756 12.9066 13.0248 12.9627 12.9751 13.0198C12.9254 13.0769 12.8768 13.1349 12.8292 13.1938C12.7817 13.2527 12.7353 13.3124 12.6901 13.3731C12.6448 13.4338 12.6007 13.4953 12.5578 13.5576C12.5149 13.62 12.4731 13.6831 12.4326 13.747C12.392 13.8109 12.3527 13.8756 12.3146 13.941C12.2765 14.0064 12.2397 14.0725 12.2041 14.1393C12.1685 14.2061 12.1342 14.2735 12.1012 14.3416C12.0681 14.4097 12.0364 14.4784 12.006 14.5478C11.9756 14.617 11.9465 14.6869 11.9187 14.7573C11.8909 14.8277 11.8644 14.8986 11.8393 14.97C11.8142 15.0414 11.7905 15.1133 11.7681 15.1856C11.7457 15.2579 11.7247 15.3306 11.7051 15.4037C11.6855 15.4768 11.6672 15.5502 11.6504 15.624C11.6335 15.6978 11.6181 15.7719 11.6041 15.8463C11.59 15.9206 11.5774 15.9953 11.5662 16.0701C11.555 16.145 11.5452 16.22 11.5368 16.2952C11.5284 16.3704 11.5215 16.4458 11.5159 16.5213C11.5104 16.5968 11.5063 16.6723 11.5037 16.748C11.501 16.8236 11.4998 16.8993 11.5 16.975C11.5004 17.0553 11.5025 17.1357 11.5061 17.216C11.5097 17.2963 11.515 17.3765 11.5218 17.4566C11.5286 17.5366 11.537 17.6166 11.547 17.6963C11.557 17.7761 11.5686 17.8556 11.5817 17.9349C11.5949 18.0142 11.6096 18.0932 11.6259 18.1719C11.6422 18.2506 11.66 18.329 11.6794 18.407C11.6988 18.485 11.7198 18.5626 11.7423 18.6398C11.7647 18.7169 11.7888 18.7936 11.8143 18.8698C11.8398 18.946 11.8669 19.0217 11.8954 19.0969C11.924 19.172 11.954 19.2465 11.9855 19.3205C12.017 19.3944 12.05 19.4677 12.0844 19.5404C12.1188 19.613 12.1547 19.6849 12.192 19.7561C12.2292 19.8274 12.2679 19.8978 12.308 19.9675C12.348 20.0372 12.3895 20.106 12.4323 20.174C12.4751 20.2421 12.5193 20.3092 12.5647 20.3755C12.6102 20.4418 12.657 20.5071 12.7051 20.5715C12.7532 20.636 12.8025 20.6994 12.8531 20.7618C12.9037 20.8243 12.9555 20.8857 13.0086 20.9461C13.0616 21.0065 13.1158 21.0658 13.1712 21.1241C13.2266 21.1823 13.2831 21.2394 13.3408 21.2954C13.3985 21.3514 13.4572 21.4063 13.5171 21.4599C13.5769 21.5136 13.6378 21.566 13.6997 21.6173C13.7617 21.6685 13.8246 21.7185 13.8885 21.7672C13.9524 21.816 14.0173 21.8634 14.0831 21.9096C14.1489 21.9558 14.2156 22.0006 14.2832 22.0441C14.3507 22.0876 14.4192 22.1298 14.4884 22.1706C14.5577 22.2114 14.6277 22.2508 14.6986 22.2888C14.7694 22.3268 14.8409 22.3634 14.9132 22.3986C14.9855 22.4337 15.0584 22.4674 15.1321 22.4997C15.2057 22.532 15.2799 22.5628 15.3547 22.5921C15.4296 22.6214 15.505 22.6492 15.5809 22.6756C15.6569 22.7019 15.7333 22.7267 15.8103 22.75L9.01075 22.75C9.00237 22.749 8.99401 22.7478 8.98568 22.7465C8.97735 22.7452 8.96904 22.7436 8.96077 22.7419C8.95251 22.7402 8.94429 22.7383 8.93611 22.7363C8.92792 22.7342 8.91978 22.732 8.91169 22.7296C8.90361 22.7271 8.89558 22.7245 8.88761 22.7218C8.87964 22.719 8.87173 22.7161 8.86388 22.713C8.85604 22.7098 8.84827 22.7065 8.84057 22.7031C8.83287 22.6996 8.82525 22.696 8.8177 22.6922C8.81017 22.6884 8.80271 22.6845 8.79534 22.6804C8.78797 22.6762 8.7807 22.672 8.77353 22.6675C8.76634 22.6631 8.75926 22.6585 8.75228 22.6538C8.7453 22.649 8.73843 22.6441 8.73166 22.6391C8.7249 22.634 8.71825 22.6288 8.71171 22.6235C8.70517 22.6182 8.69875 22.6127 8.69246 22.6071C8.68616 22.6014 8.67998 22.5957 8.67394 22.5898C8.66789 22.5839 8.66198 22.5779 8.6562 22.5718C8.65041 22.5656 8.64477 22.5593 8.63926 22.5529C8.63375 22.5465 8.62839 22.54 8.62316 22.5334C8.61794 22.5268 8.61287 22.52 8.60794 22.5132C8.60301 22.5063 8.59824 22.4994 8.59361 22.4923C8.58899 22.4852 8.58452 22.4781 8.58021 22.4708C8.5759 22.4636 8.57176 22.4562 8.56777 22.4488C8.56378 22.4413 8.55996 22.4338 8.5563 22.4262C8.55264 22.4186 8.54915 22.4109 8.54583 22.4032C8.54251 22.3954 8.53935 22.3876 8.53638 22.3797C8.5334 22.3718 8.53059 22.3638 8.52796 22.3558C8.52533 22.3478 8.52287 22.3397 8.5206 22.3316C8.51832 22.3235 8.51622 22.3153 8.5143 22.3071C8.51238 22.2989 8.51064 22.2906 8.50909 22.2823C8.50753 22.274 8.50615 22.2657 8.50496 22.2573C8.50377 22.249 8.50275 22.2406 8.50193 22.2322C8.5011 22.2238 8.50046 22.2154 8.5 22.207L8.5 9.75696C8.50126 9.74802 8.50272 9.73911 8.50439 9.73023C8.50605 9.72136 8.50792 9.71253 8.50999 9.70374C8.51206 9.69495 8.51434 9.68621 8.51681 9.67753C8.51928 9.66885 8.52195 9.66023 8.52482 9.65167C8.52769 9.64311 8.53076 9.63461 8.53402 9.6262C8.53728 9.61777 8.54073 9.60943 8.54437 9.60117C8.54801 9.59291 8.55185 9.58473 8.55587 9.57665C8.55988 9.56856 8.56409 9.56058 8.56847 9.55269C8.57286 9.54479 8.57742 9.537 8.58216 9.52931C8.58691 9.52164 8.59183 9.51406 8.59692 9.5066C8.60201 9.49915 8.60727 9.49181 8.6127 9.48459C8.61812 9.47738 8.62372 9.4703 8.62947 9.46334C8.63523 9.45638 8.64114 9.44956 8.6472 9.44288C8.65327 9.43619 8.65949 9.42964 8.66586 9.42324C8.67222 9.41685 8.67874 9.41059 8.68539 9.40449C8.69205 9.39838 8.69884 9.39244 8.70577 9.38665C8.7127 9.38086 8.71976 9.37523 8.72694 9.36977C8.73413 9.3643 8.74144 9.359 8.74887 9.35388C8.7563 9.34875 8.76384 9.34379 8.77151 9.33901C8.77916 9.33423 8.78692 9.32962 8.7948 9.32519C8.80267 9.32076 8.81064 9.31652 8.8187 9.31247C8.82677 9.3084 8.83492 9.30453 8.84315 9.30085C8.8514 9.29716 8.85973 9.29366 8.86813 9.29037C8.87654 9.28707 8.88501 9.28395 8.89355 9.28104C8.90211 9.27813 8.91072 9.27542 8.91939 9.2729C8.92805 9.27038 8.93678 9.26806 8.94557 9.26594C8.95434 9.26383 8.96316 9.26191 8.97202 9.26019C8.98089 9.25848 8.98979 9.25697 8.99872 9.25567C9.00765 9.25437 9.01661 9.25327 9.0256 9.25238C9.03459 9.25149 9.04359 9.25081 9.0526 9.25033C9.06162 9.24986 9.07065 9.24959 9.07967 9.24952C9.0887 9.24946 9.09773 9.24961 9.10676 9.24996L22.1073 9.24996C22.1169 9.24908 22.1266 9.24844 22.1363 9.24804C22.146 9.24764 22.1557 9.24749 22.1654 9.24759C22.1751 9.24767 22.1848 9.248 22.1945 9.24859C22.2042 9.24916 22.2139 9.24998 22.2236 9.25103C22.2332 9.25209 22.2428 9.25339 22.2524 9.25493C22.262 9.25647 22.2715 9.25825 22.281 9.26028C22.2905 9.26229 22.3 9.26454 22.3094 9.26703C22.3187 9.26952 22.3281 9.27225 22.3373 9.2752C22.3466 9.27817 22.3557 9.28135 22.3648 9.28476C22.3739 9.28819 22.3829 9.29183 22.3918 9.2957C22.4007 9.29955 22.4095 9.30364 22.4182 9.30795C22.4269 9.31226 22.4355 9.31678 22.444 9.32152C22.4525 9.32625 22.4608 9.3312 22.4691 9.33636C22.4773 9.34151 22.4854 9.34687 22.4933 9.35242C22.5013 9.35799 22.5091 9.36375 22.5168 9.3697C22.5244 9.37564 22.532 9.38178 22.5393 9.3881C22.5467 9.39443 22.5539 9.40094 22.561 9.40763C22.568 9.41433 22.5748 9.42119 22.5816 9.42822C22.5882 9.43525 22.5948 9.44245 22.6011 9.4498C22.6074 9.45716 22.6136 9.46467 22.6195 9.47234C22.6255 9.48 22.6313 9.48781 22.6368 9.49577C22.6424 9.50373 22.6478 9.51181 22.6529 9.52003C22.6581 9.52825 22.663 9.5366 22.6678 9.54508C22.6725 9.55355 22.6771 9.56213 22.6814 9.57083C22.6857 9.57952 22.6898 9.58833 22.6937 9.59723C22.6976 9.60614 22.7012 9.61513 22.7046 9.62421C22.708 9.6333 22.7112 9.64246 22.7142 9.65171C22.7172 9.66095 22.7199 9.67027 22.7224 9.67966C22.7249 9.68903 22.7272 9.69847 22.7292 9.70797C22.7313 9.71747 22.733 9.72701 22.7346 9.73659C22.7361 9.74618 22.7374 9.75579 22.7385 9.76544C22.7396 9.77509 22.7404 9.78477 22.741 9.79446C22.741 9.79446 22.7905 13.3307 22.7508 14.041C22.6968 13.9484 22.6407 13.8572 22.5823 13.7673C22.5239 13.6775 22.4634 13.5891 22.4007 13.5022C22.338 13.4153 22.2733 13.33 22.2065 13.2462C22.1396 13.1625 22.0708 13.0804 22 13ZM21.3475 20.0455L23.101 21.574C23.263 21.724 23.422 21.829 23.4903 22C23.4928 22.0131 23.495 22.0262 23.4968 22.0394C23.4987 22.0526 23.5001 22.0659 23.5012 22.0792C23.5023 22.0925 23.5031 22.1058 23.5034 22.1191C23.5038 22.1325 23.5038 22.1458 23.5034 22.1592C23.503 22.1725 23.5022 22.1858 23.5011 22.1991C23.5 22.2124 23.4985 22.2256 23.4966 22.2389C23.4948 22.2521 23.4926 22.2652 23.49 22.2783C23.4874 22.2914 23.4844 22.3044 23.4811 22.3173C23.4778 22.3302 23.4741 22.3431 23.4701 22.3558C23.4661 22.3685 23.4617 22.3811 23.457 22.3936C23.4523 22.4061 23.4472 22.4184 23.4418 22.4306C23.4364 22.4428 23.4306 22.4548 23.4246 22.4667C23.4185 22.4786 23.4121 22.4903 23.4054 22.5018C23.3986 22.5133 23.3916 22.5247 23.3842 22.5358C23.3769 22.5469 23.3692 22.5578 23.3613 22.5685C23.3533 22.5792 23.345 22.5897 23.3365 22.6C22.9713 22.8805 22.6615 22.729 22.39 22.432L20.4925 20.8127C20.4655 20.8341 20.4383 20.8552 20.4109 20.876C20.3835 20.8968 20.3558 20.9173 20.328 20.9375C20.3001 20.9577 20.2719 20.9776 20.2436 20.9971C20.2153 21.0167 20.1868 21.036 20.158 21.0549C20.1293 21.0738 20.1003 21.0924 20.0712 21.1107C20.042 21.129 20.0126 21.147 19.9831 21.1646C19.9535 21.1823 19.9238 21.1996 19.8938 21.2166C19.8639 21.2336 19.8337 21.2502 19.8034 21.2665C19.7731 21.2829 19.7426 21.2989 19.712 21.3145C19.6813 21.3301 19.6505 21.3454 19.6195 21.3604C19.5885 21.3754 19.5573 21.39 19.526 21.4043C19.4946 21.4185 19.4632 21.4324 19.4315 21.446C19.3999 21.4596 19.3681 21.4728 19.3362 21.4857C19.3043 21.4985 19.2722 21.5111 19.24 21.5232C19.2078 21.5354 19.1754 21.5472 19.143 21.5586C19.1105 21.5701 19.0779 21.5812 19.0452 21.5919C19.0125 21.6026 18.9797 21.613 18.9467 21.623C18.9138 21.6329 18.8807 21.6426 18.8476 21.6519C18.8144 21.6611 18.7812 21.67 18.7478 21.6785C18.7145 21.6871 18.681 21.6952 18.6475 21.703C18.614 21.7108 18.5803 21.7182 18.5467 21.7253C18.5129 21.7323 18.4792 21.739 18.4453 21.7453C18.4115 21.7516 18.3776 21.7575 18.3436 21.7631C18.3096 21.7686 18.2756 21.7738 18.2415 21.7786C18.2074 21.7833 18.1733 21.7878 18.1391 21.7918C18.1049 21.7958 18.0707 21.7995 18.0364 21.8028C18.0021 21.806 17.9678 21.8089 17.9335 21.8115C17.8992 21.814 17.8648 21.8161 17.8305 21.8179C17.7961 21.8196 17.7617 21.821 17.7272 21.822C17.6928 21.823 17.6584 21.8236 17.624 21.8239C17.5896 21.8241 17.5552 21.824 17.5207 21.8234C17.4863 21.8229 17.4519 21.822 17.4175 21.8207C17.3383 21.8209 17.2592 21.8192 17.1801 21.8155C17.101 21.8118 17.0221 21.8062 16.9433 21.7985C16.8644 21.7909 16.7859 21.7814 16.7075 21.7699C16.6292 21.7584 16.5512 21.7449 16.4735 21.7295C16.3959 21.7141 16.3186 21.6968 16.2418 21.6776C16.165 21.6584 16.0887 21.6373 16.013 21.6143C15.9372 21.5913 15.8621 21.5664 15.7875 21.5397C15.713 21.513 15.6392 21.4844 15.5661 21.454C15.493 21.4236 15.4207 21.3914 15.3492 21.3574C15.2776 21.3234 15.207 21.2877 15.1373 21.2502C15.0675 21.2127 14.9988 21.1735 14.931 21.1327C14.8632 21.0918 14.7964 21.0492 14.7308 21.005C14.6651 20.9608 14.6005 20.915 14.5371 20.8675C14.4737 20.8201 14.4115 20.7712 14.3505 20.7207C14.2895 20.6702 14.2299 20.6182 14.1715 20.5647C14.1131 20.5113 14.056 20.4564 14.0004 20.4001C13.9447 20.3438 13.8904 20.2861 13.8376 20.2272C13.7848 20.1682 13.7335 20.1079 13.6836 20.0464C13.6338 19.9848 13.5856 19.9221 13.5388 19.8582C13.4921 19.7943 13.447 19.7292 13.4036 19.6631C13.3601 19.5969 13.3183 19.5297 13.2781 19.4614C13.238 19.3932 13.1995 19.324 13.1628 19.2539C13.1261 19.1837 13.0911 19.1127 13.0579 19.0408C13.0247 18.9689 12.9934 18.8963 12.9638 18.8228C12.9342 18.7494 12.9064 18.6753 12.8805 18.6004C12.8546 18.5256 12.8306 18.4502 12.8084 18.3742C12.7862 18.2982 12.766 18.2217 12.7476 18.1447C12.7292 18.0676 12.7128 17.9902 12.6983 17.9124C12.6838 17.8345 12.6712 17.7564 12.6605 17.678C12.6499 17.5995 12.6412 17.5208 12.6344 17.4419C12.6277 17.363 12.6229 17.284 12.6201 17.2049C12.6173 17.1258 12.6164 17.0466 12.6175 16.9675C12.6175 16.8875 12.6195 16.8076 12.6234 16.7278C12.6273 16.6479 12.6332 16.5682 12.641 16.4887C12.6489 16.4091 12.6586 16.3298 12.6704 16.2507C12.6821 16.1717 12.6958 16.0929 12.7114 16.0145C12.727 15.9361 12.7445 15.8581 12.7639 15.7806C12.7833 15.703 12.8046 15.626 12.8278 15.5495C12.851 15.473 12.8761 15.3971 12.9031 15.3218C12.93 15.2466 12.9587 15.172 12.9893 15.0982C13.0199 15.0243 13.0523 14.9512 13.0865 14.879C13.1207 14.8067 13.1566 14.7353 13.1943 14.6648C13.232 14.5943 13.2714 14.5248 13.3125 14.4562C13.3536 14.3876 13.3963 14.3201 13.4407 14.2537C13.4851 14.1872 13.5312 14.1218 13.5788 14.0576C13.6264 13.9934 13.6756 13.9304 13.7263 13.8686C13.777 13.8068 13.8292 13.7463 13.8829 13.6871C13.9366 13.6278 13.9917 13.5699 14.0482 13.5134C14.1047 13.4569 14.1626 13.4018 14.2219 13.3481C14.2811 13.2944 14.3416 13.2422 14.4034 13.1915C14.4652 13.1408 14.5282 13.0916 14.5924 13.044C14.6566 12.9964 14.722 12.9504 14.7884 12.906C14.8549 12.8615 14.9224 12.8188 14.991 12.7777C15.0596 12.7366 15.1291 12.6972 15.1996 12.6595C15.2701 12.6218 15.3415 12.5859 15.4138 12.5517C15.486 12.5175 15.5591 12.4851 15.6329 12.4545C15.7068 12.424 15.7814 12.3952 15.8566 12.3683C15.9319 12.3413 16.0078 12.3163 16.0843 12.2931C16.1608 12.2699 16.2378 12.2485 16.3154 12.2291C16.3929 12.2097 16.4709 12.1922 16.5493 12.1766C16.6277 12.161 16.7064 12.1473 16.7855 12.1356C16.8646 12.1238 16.9439 12.1141 17.0235 12.1062C17.103 12.0984 17.1827 12.0925 17.2626 12.0886C17.3424 12.0847 17.4223 12.0827 17.5023 12.0827C17.5822 12.0827 17.6621 12.0847 17.7419 12.0886C17.8218 12.0925 17.9015 12.0984 17.981 12.1062C18.0606 12.1141 18.1399 12.1238 18.219 12.1356C18.2981 12.1473 18.3768 12.161 18.4552 12.1766C18.5336 12.1922 18.6116 12.2097 18.6892 12.2291C18.7667 12.2485 18.8437 12.2699 18.9202 12.2931C18.9967 12.3163 19.0726 12.3413 19.1479 12.3683C19.2231 12.3952 19.2977 12.424 19.3716 12.4545C19.4454 12.4851 19.5185 12.5175 19.5908 12.5517C19.663 12.5859 19.7344 12.6218 19.8049 12.6595C19.8754 12.6972 19.9449 12.7366 20.0135 12.7777C20.0821 12.8188 20.1496 12.8615 20.2161 12.906C20.2825 12.9504 20.3479 12.9964 20.4121 13.044C20.4763 13.0916 20.5393 13.1408 20.6011 13.1915C20.6629 13.2422 20.7234 13.2944 20.7826 13.3481C20.8419 13.4018 20.8998 13.4569 20.9563 13.5134C21.0128 13.5699 21.0679 13.6278 21.1216 13.6871C21.1753 13.7463 21.2275 13.8068 21.2782 13.8686C21.3289 13.9304 21.3781 13.9934 21.4257 14.0576C21.4733 14.1218 21.5194 14.1872 21.5638 14.2537C21.6082 14.3201 21.651 14.3876 21.692 14.4562C21.7331 14.5248 21.7725 14.5943 21.8102 14.6648C21.8479 14.7353 21.8838 14.8067 21.918 14.879C21.9522 14.9512 21.9846 15.0243 22.0152 15.0982C22.0458 15.172 22.0745 15.2466 22.1015 15.3218C22.1284 15.3971 22.1535 15.473 22.1767 15.5495C22.1999 15.626 22.2212 15.703 22.2406 15.7806C22.26 15.8581 22.2775 15.9361 22.2931 16.0145C22.3087 16.0929 22.3224 16.1717 22.3341 16.2507C22.3459 16.3298 22.3556 16.4091 22.3635 16.4887C22.3713 16.5682 22.3772 16.6479 22.3811 16.7278C22.385 16.8076 22.387 16.8875 22.387 16.9675C22.3859 17.0018 22.3844 17.0361 22.3826 17.0704C22.3809 17.1046 22.3788 17.1389 22.3764 17.1731C22.374 17.2074 22.3713 17.2416 22.3683 17.2758C22.3653 17.31 22.3619 17.3442 22.3583 17.3783C22.3546 17.4125 22.3507 17.4466 22.3464 17.4806C22.3421 17.5147 22.3376 17.5487 22.3327 17.5827C22.3278 17.6167 22.3226 17.6506 22.3171 17.6845C22.3116 17.7184 22.3057 17.7522 22.2996 17.786C22.2935 17.8197 22.2871 17.8535 22.2803 17.8871C22.2736 17.9208 22.2665 17.9544 22.2592 17.9879C22.2518 18.0215 22.2441 18.0549 22.2362 18.0883C22.2282 18.1217 22.2199 18.155 22.2113 18.1882C22.2027 18.2215 22.1939 18.2546 22.1847 18.2877C22.1755 18.3208 22.166 18.3538 22.1562 18.3867C22.1464 18.4196 22.1363 18.4524 22.126 18.4851C22.1156 18.5179 22.1049 18.5505 22.0939 18.583C22.0829 18.6155 22.0716 18.648 22.0601 18.6803C22.0485 18.7126 22.0366 18.7448 22.0245 18.7769C22.0123 18.809 21.9998 18.841 21.9871 18.8729C21.9743 18.9047 21.9613 18.9365 21.948 18.9681C21.9346 18.9998 21.921 19.0313 21.9071 19.0627C21.8932 19.0941 21.879 19.1253 21.8645 19.1564C21.85 19.1876 21.8353 19.2186 21.8202 19.2494C21.8052 19.2803 21.7899 19.311 21.7743 19.3416C21.7587 19.3722 21.7428 19.4026 21.7266 19.4329C21.7104 19.4632 21.694 19.4933 21.6773 19.5233C21.6606 19.5533 21.6436 19.5831 21.6263 19.6128C21.6091 19.6425 21.5915 19.672 21.5737 19.7013C21.556 19.7307 21.5379 19.7599 21.5196 19.7889C21.5012 19.8179 21.4826 19.8468 21.4638 19.8755C21.4449 19.9042 21.4258 19.9327 21.4064 19.961C21.387 19.9893 21.3674 20.0175 21.3475 20.0455ZM18.3745 13.591C18.4008 13.5951 18.4271 13.5997 18.4533 13.6046C18.4795 13.6096 18.5056 13.6149 18.5317 13.6206C18.5577 13.6264 18.5836 13.6325 18.6095 13.639C18.6353 13.6455 18.6611 13.6524 18.6867 13.6597C18.7124 13.667 18.7379 13.6747 18.7633 13.6828C18.7887 13.6909 18.814 13.6993 18.8392 13.7081C18.8643 13.717 18.8893 13.7262 18.9142 13.7358C18.9391 13.7454 18.9638 13.7553 18.9884 13.7657C19.013 13.776 19.0374 13.7867 19.0617 13.7978C19.0859 13.8089 19.11 13.8203 19.1339 13.8321C19.1578 13.8439 19.1815 13.8561 19.2051 13.8686C19.2286 13.8811 19.2519 13.8939 19.2751 13.9072C19.2982 13.9204 19.3212 13.934 19.3439 13.9479C19.3667 13.9618 19.3892 13.9761 19.4115 13.9907C19.4338 14.0053 19.4559 14.0202 19.4778 14.0355C19.4996 14.0507 19.5212 14.0663 19.5426 14.0822C19.564 14.0982 19.5852 14.1144 19.6061 14.131C19.627 14.1475 19.6476 14.1644 19.668 14.1816C19.6884 14.1987 19.7085 14.2162 19.7284 14.234C19.7482 14.2518 19.7678 14.2699 19.7871 14.2883C19.8064 14.3066 19.8254 14.3253 19.8442 14.3443C19.8629 14.3632 19.8814 14.3825 19.8996 14.402C19.9177 14.4215 19.9356 14.4413 19.9532 14.4613C19.9707 14.4814 19.988 14.5017 20.005 14.5223C20.0219 14.5428 20.0385 14.5637 20.0549 14.5848C20.0712 14.6058 20.0872 14.6272 20.1029 14.6487C20.1186 14.6703 20.1339 14.6921 20.149 14.7141C20.164 14.7361 20.1787 14.7584 20.193 14.7809C20.2073 14.8033 20.2214 14.826 20.235 14.8489C20.2487 14.8718 20.262 14.8949 20.275 14.9182C20.2879 14.9415 20.3005 14.965 20.3128 14.9886C20.3251 15.0123 20.337 15.0362 20.3485 15.0602C20.3518 15.0653 20.3552 15.0703 20.3588 15.0753C20.3623 15.0803 20.366 15.0851 20.3698 15.0899C20.3735 15.0947 20.3774 15.0994 20.3814 15.104C20.3854 15.1086 20.3895 15.1131 20.3937 15.1175C20.3979 15.1219 20.4022 15.1262 20.4066 15.1304C20.411 15.1346 20.4155 15.1387 20.4201 15.1427C20.4247 15.1467 20.4294 15.1506 20.4341 15.1544C20.4389 15.1582 20.4438 15.1618 20.4487 15.1654C20.4537 15.1689 20.4587 15.1724 20.4638 15.1757C20.4689 15.179 20.4741 15.1822 20.4793 15.1853C20.4846 15.1884 20.4899 15.1913 20.4953 15.1942C20.5007 15.197 20.5061 15.1997 20.5117 15.2023C20.5172 15.2049 20.5228 15.2073 20.5284 15.2096C20.534 15.212 20.5397 15.2141 20.5454 15.2162C20.5512 15.2182 20.5569 15.2201 20.5628 15.2219C20.5686 15.2237 20.5744 15.2254 20.5803 15.2269C20.5862 15.2284 20.5922 15.2298 20.5981 15.231C20.6041 15.2322 20.6101 15.2333 20.6161 15.2343C20.6221 15.2352 20.6282 15.2361 20.6342 15.2367C20.6402 15.2374 20.6463 15.238 20.6524 15.2383C20.6585 15.2387 20.6646 15.239 20.6706 15.2391C20.6767 15.2392 20.6828 15.2392 20.6889 15.239C20.695 15.2388 20.7011 15.2385 20.7071 15.2381C20.7132 15.2376 20.7193 15.237 20.7253 15.2362C20.7314 15.2355 20.7374 15.2346 20.7434 15.2336C20.7494 15.2326 20.7554 15.2314 20.7613 15.2301C20.7673 15.2288 20.7732 15.2274 20.7791 15.2258C20.7849 15.2242 20.7908 15.2225 20.7966 15.2207C20.8024 15.2188 20.8082 15.2169 20.8139 15.2148C20.8196 15.2126 20.8252 15.2104 20.8308 15.208C20.8364 15.2056 20.842 15.2031 20.8475 15.2005C20.853 15.1979 20.8584 15.1951 20.8638 15.1922C20.869 15.1895 20.8742 15.1867 20.8794 15.1837C20.8845 15.1808 20.8896 15.1777 20.8945 15.1745C20.8995 15.1713 20.9044 15.1679 20.9092 15.1645C20.9141 15.161 20.9188 15.1575 20.9234 15.1538C20.9281 15.1501 20.9326 15.1463 20.937 15.1424C20.9415 15.1384 20.9458 15.1344 20.9501 15.1303C20.9543 15.1261 20.9585 15.1219 20.9625 15.1176C20.9665 15.1132 20.9705 15.1088 20.9743 15.1042C20.9781 15.0997 20.9818 15.0951 20.9854 15.0904C20.9889 15.0856 20.9924 15.0808 20.9957 15.0759C20.9991 15.071 21.0023 15.066 21.0054 15.061C21.0085 15.0559 21.0114 15.0508 21.0143 15.0456C21.0171 15.0404 21.0198 15.0351 21.0224 15.0298C21.0249 15.0244 21.0274 15.019 21.0297 15.0136C21.032 15.0081 21.0341 15.0026 21.0362 14.997C21.0382 14.9915 21.0401 14.9858 21.0418 14.9802C21.0436 14.9745 21.0452 14.9688 21.0466 14.9631C21.0481 14.9573 21.0494 14.9515 21.0506 14.9457C21.0517 14.9399 21.0527 14.9341 21.0536 14.9282C21.0545 14.9224 21.0552 14.9165 21.0558 14.9106C21.0564 14.9047 21.0568 14.8988 21.0571 14.8929C21.0574 14.8869 21.0575 14.881 21.0575 14.8751C21.0575 14.8691 21.0574 14.8632 21.0571 14.8573C21.0567 14.8514 21.0563 14.8455 21.0557 14.8396C21.0551 14.8337 21.0543 14.8278 21.0535 14.822C21.0526 14.8161 21.0515 14.8103 21.0503 14.8045C21.0491 14.7987 21.0478 14.7929 21.0464 14.7871C21.0449 14.7814 21.0433 14.7757 21.0415 14.7701C21.0397 14.7644 21.0378 14.7588 21.0358 14.7532C21.0337 14.7476 21.0316 14.7421 21.0293 14.7367C21.0269 14.7312 21.0245 14.7258 21.0219 14.7205C21.0193 14.7152 21.0166 14.7099 21.0138 14.7047C20.9984 14.6743 20.9826 14.6442 20.9664 14.6144C20.9501 14.5845 20.9335 14.5548 20.9164 14.5254C20.8992 14.4961 20.8817 14.4669 20.8637 14.4381C20.8457 14.4092 20.8272 14.3806 20.8084 14.3523C20.7895 14.324 20.7703 14.296 20.7506 14.2683C20.7309 14.2405 20.7108 14.2131 20.6903 14.186C20.6697 14.1588 20.6488 14.132 20.6275 14.1055C20.6062 14.079 20.5844 14.0528 20.5624 14.027C20.5402 14.0011 20.5178 13.9756 20.4949 13.9505C20.472 13.9253 20.4488 13.9004 20.4252 13.876C20.4016 13.8515 20.3776 13.8274 20.3532 13.8036C20.3289 13.7799 20.3042 13.7565 20.2792 13.7334C20.2541 13.7104 20.2288 13.6878 20.2031 13.6655C20.1773 13.6432 20.1513 13.6214 20.1249 13.5999C20.0986 13.5784 20.0719 13.5573 20.0449 13.5367C20.0179 13.516 19.9905 13.4957 19.9629 13.4758C19.9353 13.456 19.9074 13.4365 19.8793 13.4175C19.8511 13.3985 19.8226 13.3799 19.7938 13.3617C19.7651 13.3435 19.7361 13.3258 19.7068 13.3085C19.6775 13.2912 19.648 13.2743 19.6182 13.2579C19.5884 13.2415 19.5584 13.2255 19.5281 13.21C19.4978 13.1945 19.4673 13.1794 19.4366 13.1648C19.4059 13.1502 19.375 13.1361 19.3438 13.1224C19.3127 13.1087 19.2813 13.0955 19.2498 13.0828C19.2183 13.07 19.1866 13.0577 19.1547 13.0459C19.1227 13.0342 19.0907 13.0228 19.0584 13.012C19.0262 13.0012 18.9938 12.9909 18.9613 12.981C18.9287 12.9711 18.896 12.9618 18.8632 12.9529C18.8303 12.944 18.7974 12.9356 18.7643 12.9277C18.7312 12.9199 18.698 12.9125 18.6647 12.9056C18.6314 12.8987 18.598 12.8923 18.5645 12.8864C18.531 12.8805 18.4974 12.8751 18.4638 12.8702C18.4577 12.8693 18.4516 12.8686 18.4455 12.868C18.4394 12.8675 18.4333 12.867 18.4272 12.8668C18.4211 12.8665 18.415 12.8663 18.4089 12.8664C18.4028 12.8664 18.3966 12.8666 18.3905 12.8669C18.3844 12.8672 18.3783 12.8677 18.3722 12.8683C18.3662 12.8689 18.3601 12.8697 18.354 12.8706C18.348 12.8715 18.342 12.8726 18.336 12.8738C18.33 12.875 18.324 12.8763 18.3181 12.8778C18.3121 12.8793 18.3063 12.881 18.3004 12.8828C18.2945 12.8846 18.2887 12.8865 18.283 12.8886C18.2772 12.8906 18.2715 12.8929 18.2659 12.8952C18.2602 12.8976 18.2546 12.9 18.2491 12.9027C18.2436 12.9053 18.2381 12.9081 18.2328 12.911C18.2274 12.9139 18.222 12.9169 18.2168 12.9201C18.2116 12.9232 18.2064 12.9265 18.2013 12.9299C18.1962 12.9333 18.1912 12.9368 18.1863 12.9405C18.1814 12.9441 18.1766 12.9479 18.1719 12.9518C18.1672 12.9557 18.1625 12.9597 18.158 12.9638C18.1535 12.9679 18.1491 12.9721 18.1447 12.9765C18.1404 12.9808 18.1362 12.9852 18.1321 12.9897C18.128 12.9943 18.124 12.9989 18.1201 13.0037C18.1162 13.0084 18.1125 13.0132 18.1088 13.0181C18.1052 13.023 18.1017 13.028 18.0983 13.0331C18.0949 13.0382 18.0916 13.0434 18.0885 13.0486C18.0853 13.0539 18.0823 13.0592 18.0794 13.0646C18.0765 13.07 18.0738 13.0755 18.0712 13.081C18.0685 13.0865 18.0661 13.0921 18.0637 13.0978C18.0614 13.1034 18.0592 13.1091 18.0571 13.1149C18.055 13.1207 18.0531 13.1265 18.0514 13.1323C18.0496 13.1382 18.0479 13.144 18.0465 13.15C18.0449 13.1559 18.0436 13.1619 18.0424 13.1679C18.0412 13.1739 18.0402 13.1799 18.0393 13.186C18.0386 13.192 18.0382 13.1981 18.0379 13.2042C18.0375 13.2103 18.0374 13.2164 18.0374 13.2225C18.0373 13.2286 18.0375 13.2347 18.0378 13.2408C18.038 13.2468 18.0385 13.2529 18.0391 13.259C18.0397 13.2651 18.0404 13.2711 18.0413 13.2772C18.0422 13.2832 18.0432 13.2892 18.0444 13.2952C18.0456 13.3011 18.0469 13.3071 18.0484 13.313C18.0499 13.3189 18.0515 13.3248 18.0533 13.3306C18.0551 13.3365 18.057 13.3422 18.059 13.348C18.0611 13.3537 18.0633 13.3594 18.0656 13.365C18.068 13.3707 18.0705 13.3762 18.0731 13.3817C18.0757 13.3872 18.0784 13.3927 18.0813 13.3981C18.0842 13.4034 18.0872 13.4087 18.0904 13.4139C18.0935 13.4191 18.0968 13.4243 18.1002 13.4294C18.1036 13.4344 18.1071 13.4394 18.1108 13.4443C18.1144 13.4492 18.1182 13.4539 18.1221 13.4586C18.126 13.4633 18.13 13.4679 18.1341 13.4724C18.1382 13.4769 18.1424 13.4813 18.1468 13.4856C18.1511 13.4899 18.1556 13.4941 18.1601 13.4981C18.1646 13.5022 18.1693 13.5062 18.174 13.51C18.1787 13.5138 18.1836 13.5176 18.1885 13.5212C18.1934 13.5248 18.1984 13.5282 18.2035 13.5316C18.2086 13.5349 18.2138 13.5382 18.219 13.5413C18.2243 13.5444 18.2296 13.5473 18.235 13.5502C18.2404 13.553 18.2459 13.5557 18.2514 13.5582C18.2569 13.5608 18.2625 13.5632 18.2682 13.5655C18.2738 13.5678 18.2796 13.5699 18.2853 13.5719C18.2911 13.5739 18.2969 13.5758 18.3027 13.5775C18.3086 13.5792 18.3145 13.5808 18.3204 13.5822C18.3263 13.5836 18.3323 13.5849 18.3383 13.586C18.3443 13.5871 18.3503 13.5881 18.3563 13.5889C18.3624 13.5898 18.3684 13.5904 18.3745 13.591Z"   fill="url(#linear_fill_9_1557)" >
</path>
<defs>
<linearGradient id="linear_fill_9_1557" x1="8.5" y1="9.24755859375" x2="23.4656982421875" y2="22.7158203125" gradientUnits="userSpaceOnUse">
<stop offset="0" stop-color="#6BD3FF"  />
<stop offset="1" stop-color="#3EA2FF"  />
</linearGradient>
</defs>
</svg>