<svg xmlns="http://www.w3.org/2000/svg" xmlns:xlink="http://www.w3.org/1999/xlink" width="16.31396484375" height="16.3125" viewBox="0 0 16.31396484375 16.3125" fill="none">
    <path d="M9.56387 0C9.60991 0 9.65591 0.00112908 9.70188 0.00338729C9.74784 0.00564666 9.79374 0.00903168 9.83955 0.0135422C9.88536 0.018054 9.93103 0.0236871 9.97655 0.0304418C10.0221 0.0371953 10.0674 0.0450621 10.1126 0.0540422C10.1577 0.0630211 10.2026 0.0731027 10.2473 0.0842871C10.2919 0.0954715 10.3363 0.107744 10.3803 0.121104C10.4243 0.134466 10.468 0.148901 10.5114 0.164408C10.5547 0.179914 10.5976 0.196474 10.6402 0.214089C10.6827 0.231704 10.7248 0.250351 10.7664 0.27003C10.808 0.289709 10.8491 0.310398 10.8897 0.332096C10.9303 0.353793 10.9703 0.376474 11.0098 0.400138C11.0493 0.423802 11.0881 0.44842 11.1264 0.473992C11.1647 0.499563 11.2023 0.526059 11.2393 0.553479C11.2762 0.580899 11.3125 0.609209 11.3481 0.638408C11.3837 0.667608 11.4185 0.697663 11.4526 0.728575C11.4867 0.759486 11.5201 0.791216 11.5526 0.823762C11.5851 0.85631 11.6169 0.889636 11.6478 0.923741C11.6787 0.957846 11.7088 0.992689 11.738 1.02827C11.7672 1.06385 11.7955 1.10013 11.8229 1.1371C11.8503 1.17407 11.8768 1.21169 11.9024 1.24996C11.928 1.28824 11.9526 1.32711 11.9762 1.36659C11.9999 1.40607 12.0226 1.44611 12.0443 1.48671C12.066 1.5273 12.0867 1.5684 12.1063 1.61C12.126 1.65161 12.1447 1.69368 12.1623 1.73621C12.1799 1.77873 12.1965 1.82166 12.212 1.865C12.2275 1.90833 12.2419 1.95203 12.2553 1.99607C12.2686 2.04012 12.2809 2.08447 12.2921 2.12912C12.3033 2.17376 12.3134 2.21866 12.3223 2.26382C12.3313 2.30896 12.3392 2.35429 12.3459 2.39982C12.3527 2.44535 12.3583 2.49101 12.3628 2.53682C12.3674 2.58263 12.3707 2.62853 12.373 2.67449C12.3752 2.72046 12.3764 2.76646 12.3764 2.8125L15.1889 2.8125C15.2073 2.8125 15.2257 2.81296 15.2441 2.81385C15.2625 2.81475 15.2808 2.8161 15.2991 2.81791C15.3175 2.81972 15.3357 2.82197 15.3539 2.82468C15.3722 2.82737 15.3903 2.83052 15.4084 2.83412C15.4264 2.83771 15.4444 2.84173 15.4622 2.84621C15.4801 2.8507 15.4978 2.8556 15.5154 2.86095C15.5331 2.86629 15.5505 2.87205 15.5679 2.87826C15.5852 2.88446 15.6024 2.89109 15.6194 2.89814C15.6364 2.90519 15.6532 2.91264 15.6699 2.92052C15.6865 2.92838 15.703 2.93665 15.7192 2.94534C15.7354 2.95402 15.7514 2.96309 15.7672 2.97255C15.783 2.98202 15.7986 2.99187 15.8139 3.0021C15.8292 3.01233 15.8443 3.02293 15.859 3.0339C15.8738 3.04487 15.8883 3.05619 15.9026 3.06786C15.9168 3.07955 15.9307 3.09157 15.9444 3.10393C15.958 3.11629 15.9713 3.12898 15.9844 3.142C15.9974 3.15503 16.0101 3.16835 16.0224 3.18199C16.0348 3.19563 16.0468 3.20957 16.0585 3.22381C16.0702 3.23803 16.0815 3.25255 16.0925 3.26733C16.1034 3.28212 16.114 3.29716 16.1243 3.31247C16.1345 3.32779 16.1443 3.34334 16.1538 3.35913C16.1633 3.37493 16.1723 3.39094 16.181 3.40719C16.1897 3.42341 16.198 3.43985 16.2059 3.45649C16.2137 3.47314 16.2212 3.48998 16.2282 3.50698C16.2353 3.52399 16.2419 3.54117 16.2481 3.5585C16.2543 3.57583 16.2601 3.5933 16.2654 3.61093C16.2708 3.62855 16.2757 3.64628 16.2802 3.66414C16.2846 3.682 16.2887 3.69997 16.2922 3.71802C16.2959 3.73607 16.299 3.75421 16.3017 3.77242C16.3044 3.79063 16.3066 3.8089 16.3085 3.82723C16.3103 3.84555 16.3116 3.8639 16.3125 3.8823C16.3134 3.90069 16.3139 3.9191 16.3139 3.9375L16.3139 15.1875C16.3139 15.2059 16.3134 15.2243 16.3125 15.2427C16.3116 15.2611 16.3103 15.2795 16.3085 15.2978C16.3066 15.3161 16.3044 15.3344 16.3017 15.3526C16.299 15.3708 16.2959 15.3889 16.2922 15.407C16.2887 15.425 16.2846 15.443 16.2802 15.4609C16.2757 15.4787 16.2708 15.4965 16.2654 15.5141C16.2601 15.5317 16.2543 15.5492 16.2481 15.5665C16.2419 15.5838 16.2353 15.601 16.2282 15.618C16.2212 15.635 16.2137 15.6519 16.2059 15.6685C16.198 15.6852 16.1897 15.7016 16.181 15.7178C16.1723 15.7341 16.1633 15.7501 16.1538 15.7659C16.1443 15.7817 16.1345 15.7972 16.1243 15.8125C16.114 15.8278 16.1034 15.8429 16.0925 15.8577C16.0815 15.8724 16.0702 15.887 16.0585 15.9012C16.0468 15.9154 16.0348 15.9294 16.0224 15.943C16.0101 15.9566 15.9974 15.97 15.9844 15.983C15.9713 15.996 15.958 16.0087 15.9444 16.0211C15.9307 16.0334 15.9168 16.0455 15.9026 16.0571C15.8883 16.0688 15.8738 16.0801 15.859 16.0911C15.8443 16.1021 15.8292 16.1127 15.8139 16.1229C15.7986 16.1331 15.783 16.143 15.7672 16.1524C15.7514 16.1619 15.7354 16.171 15.7192 16.1797C15.703 16.1883 15.6865 16.1966 15.6699 16.2045C15.6532 16.2124 15.6364 16.2198 15.6194 16.2269C15.6024 16.2339 15.5852 16.2405 15.5679 16.2467C15.5505 16.2529 15.5331 16.2587 15.5154 16.2641C15.4978 16.2694 15.4801 16.2743 15.4622 16.2788C15.4444 16.2833 15.4264 16.2873 15.4084 16.2909C15.3903 16.2945 15.3722 16.2976 15.3539 16.3003C15.3357 16.303 15.3175 16.3053 15.2991 16.3071C15.2808 16.3089 15.2625 16.3102 15.2441 16.3111C15.2257 16.312 15.2073 16.3125 15.1889 16.3125L11.0714 16.3125L11.0714 14.4788C11.0714 14.4551 11.0708 14.4314 11.0698 14.4078C11.0687 14.3841 11.067 14.3605 11.0649 14.3369C11.0627 14.3133 11.06 14.2898 11.0567 14.2664C11.0535 14.2429 11.0497 14.2195 11.0453 14.1963C11.041 14.173 11.0361 14.1498 11.0307 14.1268C11.0253 14.1037 11.0194 14.0808 11.013 14.058C11.0065 14.0352 10.9995 14.0126 10.992 13.9901C10.9845 13.9677 10.9765 13.9454 10.968 13.9233C10.9595 13.9012 10.9504 13.8794 10.9409 13.8577C10.9313 13.836 10.9213 13.8146 10.9108 13.7934C10.9003 13.7721 10.8893 13.7512 10.8778 13.7305C10.8663 13.7098 10.8543 13.6894 10.8419 13.6692C10.8295 13.649 10.8166 13.6292 10.8032 13.6096C10.7899 13.5901 10.7761 13.5708 10.7619 13.5519C10.7476 13.533 10.733 13.5144 10.7179 13.4962C10.7028 13.4779 10.6873 13.46 10.6714 13.4425C10.6555 13.425 10.6392 13.4078 10.6225 13.391C10.6058 13.3742 10.5887 13.3578 10.5712 13.3418C10.5538 13.3259 10.5359 13.3103 10.5178 13.2951C10.4996 13.2799 10.4811 13.2652 10.4622 13.2509C10.4433 13.2365 10.4242 13.2227 10.4047 13.2092C10.3852 13.1958 10.3654 13.1828 10.3453 13.1703C10.3252 13.1578 10.3048 13.1457 10.2842 13.1341C10.2635 13.1225 10.2426 13.1115 10.2215 13.1008C10.2003 13.0902 10.1789 13.0801 10.1573 13.0704C10.1356 13.0608 10.1138 13.0517 10.0917 13.0431C10.0697 13.0344 10.0474 13.0263 10.025 13.0187C10.0026 13.0111 9.98002 13.004 9.95727 12.9975C9.93452 12.9909 9.91164 12.9849 9.88861 12.9794C9.86556 12.9739 9.84243 12.9689 9.81918 12.9644C9.79592 12.96 9.77256 12.9561 9.74913 12.9527C9.7257 12.9494 9.70219 12.9465 9.67862 12.9443L9.53012 12.9375C9.5049 12.9375 9.47969 12.9381 9.4545 12.9394C9.42931 12.9406 9.40416 12.9424 9.37906 12.9449C9.35395 12.9474 9.32892 12.9505 9.30398 12.9542C9.27904 12.9579 9.25418 12.9622 9.22943 12.9671C9.2047 12.972 9.18009 12.9776 9.15564 12.9837C9.13117 12.9898 9.10686 12.9965 9.08272 13.0039C9.05859 13.0112 9.03465 13.0191 9.0109 13.0276C8.98715 13.0361 8.96361 13.0452 8.9403 13.0548C8.91701 13.0645 8.89395 13.0747 8.87115 13.0855C8.84835 13.0963 8.82582 13.1076 8.80358 13.1195C8.78135 13.1314 8.75941 13.1438 8.73777 13.1568C8.71613 13.1697 8.69483 13.1832 8.67386 13.1973C8.65288 13.2113 8.63227 13.2258 8.612 13.2408C8.59173 13.2558 8.57185 13.2713 8.55236 13.2873C8.53286 13.3034 8.51377 13.3198 8.49509 13.3368C8.4764 13.3537 8.45814 13.3711 8.4403 13.3889C8.42245 13.4068 8.40507 13.425 8.38812 13.4437C8.3712 13.4624 8.35472 13.4815 8.33871 13.501C8.32271 13.5205 8.30721 13.5404 8.29218 13.5606C8.27715 13.5809 8.26263 13.6015 8.24862 13.6225C8.23461 13.6435 8.22111 13.6647 8.20814 13.6864C8.19519 13.708 8.18276 13.73 8.17086 13.7522C8.15896 13.7744 8.14762 13.797 8.13684 13.8198C8.12607 13.8426 8.11584 13.8656 8.10619 13.8889C8.09654 13.9122 8.08747 13.9358 8.07896 13.9595C8.07047 13.9833 8.06256 14.0072 8.05523 14.0314C8.04792 14.0555 8.0412 14.0798 8.03507 14.1043C8.02893 14.1287 8.02341 14.1533 8.01849 14.1781C8.01357 14.2028 8.00926 14.2277 8.00555 14.2526C8.00184 14.2776 7.99877 14.3026 7.99629 14.3277C7.99381 14.3528 7.99196 14.3779 7.99073 14.4031C7.98949 14.4283 7.98887 14.4535 7.98887 14.4788L7.98887 16.3125L3.93887 16.3125C3.92047 16.3125 3.90206 16.312 3.88368 16.3111C3.86527 16.3102 3.84692 16.3089 3.8286 16.3071C3.81027 16.3053 3.79201 16.303 3.77379 16.3003C3.75558 16.2976 3.73744 16.2945 3.71939 16.2909C3.70134 16.2873 3.68337 16.2833 3.66551 16.2788C3.64765 16.2743 3.62992 16.2694 3.6123 16.2641C3.59467 16.2587 3.5772 16.2529 3.55987 16.2467C3.54254 16.2405 3.52536 16.2339 3.50835 16.2269C3.49135 16.2198 3.47451 16.2124 3.45786 16.2045C3.44122 16.1966 3.42478 16.1883 3.40856 16.1797C3.39231 16.171 3.3763 16.1619 3.3605 16.1525C3.34471 16.143 3.32916 16.1331 3.31385 16.1229C3.29854 16.1127 3.28349 16.1021 3.26871 16.0911C3.25392 16.0801 3.2394 16.0688 3.22518 16.0571C3.21094 16.0455 3.197 16.0334 3.18336 16.0211C3.16972 16.0087 3.1564 15.996 3.14337 15.983C3.13035 15.97 3.11766 15.9566 3.1053 15.943C3.09294 15.9294 3.08092 15.9154 3.06923 15.9012C3.05756 15.887 3.04624 15.8724 3.03527 15.8577C3.0243 15.8429 3.0137 15.8278 3.00347 15.8125C2.99324 15.7972 2.98339 15.7817 2.97392 15.7659C2.96446 15.7501 2.95539 15.7341 2.94671 15.7178C2.93803 15.7016 2.92975 15.6851 2.92189 15.6685C2.91401 15.6518 2.90656 15.635 2.89951 15.618C2.89246 15.601 2.88584 15.5838 2.87963 15.5665C2.87343 15.5492 2.86766 15.5317 2.86232 15.5141C2.85697 15.4965 2.85207 15.4787 2.84759 15.4609C2.8431 15.443 2.83908 15.425 2.83549 15.407C2.83189 15.3889 2.82874 15.3708 2.82605 15.3526C2.82335 15.3344 2.8211 15.3161 2.81929 15.2978C2.81747 15.2795 2.81612 15.2611 2.81522 15.2427C2.81433 15.2243 2.81387 15.2059 2.81387 15.1875L2.81387 12.375C2.76783 12.375 2.72181 12.3739 2.67583 12.3717C2.62983 12.3694 2.58393 12.3661 2.53811 12.3616C2.49228 12.3571 2.44659 12.3515 2.40105 12.3447C2.3555 12.338 2.31013 12.3302 2.26498 12.3212C2.21982 12.3122 2.17491 12.3022 2.13024 12.291C2.08557 12.2798 2.04121 12.2676 1.99714 12.2542C1.95307 12.2409 1.90937 12.2264 1.86601 12.211C1.82264 12.1955 1.7797 12.1789 1.73716 12.1613C1.69461 12.1437 1.65252 12.1251 1.6109 12.1054C1.56926 12.0857 1.52814 12.065 1.48753 12.0434C1.44692 12.0217 1.40685 11.999 1.36735 11.9753C1.32786 11.9517 1.28897 11.9271 1.25067 11.9015C1.21238 11.8759 1.17474 11.8494 1.13775 11.822C1.10076 11.7946 1.06447 11.7663 1.02887 11.7371C0.993266 11.7079 0.958405 11.6778 0.924281 11.6469C0.890156 11.616 0.856812 11.5843 0.824247 11.5517C0.791682 11.5192 0.759936 11.4858 0.729007 11.4517C0.698078 11.4176 0.668006 11.3828 0.638789 11.3472C0.609572 11.3116 0.581245 11.2753 0.553811 11.2383C0.526377 11.2014 0.499866 11.1637 0.474277 11.1255C0.44869 11.0872 0.424058 11.0483 0.40038 11.0088C0.376703 10.9693 0.354009 10.9293 0.332299 10.8887C0.310588 10.8481 0.289888 10.807 0.270195 10.7654C0.250502 10.7237 0.231845 10.6816 0.214219 10.6391C0.196594 10.5966 0.180025 10.5536 0.164508 10.5103C0.148993 10.4669 0.13455 10.4232 0.12118 10.3792C0.10781 10.3351 0.0955296 10.2908 0.0843381 10.2461C0.0731479 10.2014 0.0630598 10.1565 0.0540738 10.1114C0.0450891 10.0662 0.0372176 10.0208 0.0304594 9.9753C0.0237011 9.92976 0.018065 9.88409 0.013551 9.83827C0.00903693 9.79244 0.00564964 9.74654 0.00338908 9.70054C0.00112968 9.65456 0 9.60854 0 9.5625C0 9.51646 0.00112968 9.47044 0.00338908 9.42446C0.00564964 9.37846 0.00903693 9.33256 0.013551 9.28673C0.018065 9.24091 0.0237011 9.19524 0.0304594 9.1497C0.0372176 9.10415 0.0450891 9.0588 0.0540738 9.01364C0.0630598 8.96848 0.0731479 8.92357 0.0843381 8.8789C0.0955296 8.83424 0.10781 8.78989 0.12118 8.74584C0.13455 8.70177 0.148993 8.65807 0.164508 8.61472C0.180025 8.57136 0.196594 8.52841 0.214219 8.48589C0.231845 8.44335 0.250502 8.40127 0.270195 8.35965C0.289886 8.31804 0.310588 8.27692 0.332299 8.23632C0.354009 8.19571 0.376703 8.15567 0.40038 8.11619C0.424058 8.07669 0.44869 8.03781 0.474277 7.99952C0.499866 7.96126 0.526377 7.92362 0.553811 7.88665C0.581245 7.84967 0.609572 7.81339 0.638789 7.77781C0.668006 7.74221 0.698078 7.70738 0.729007 7.67326C0.759936 7.63915 0.791682 7.60583 0.824247 7.57327C0.856812 7.54073 0.890156 7.50901 0.924281 7.47809C0.958405 7.44717 0.993266 7.41711 1.02887 7.38791C1.06447 7.35871 1.10076 7.33041 1.13775 7.30299C1.17474 7.27559 1.21238 7.2491 1.25067 7.22352C1.28897 7.19794 1.32786 7.17333 1.36735 7.14967C1.40685 7.12601 1.44692 7.10334 1.48753 7.08165C1.52814 7.05996 1.56926 7.03928 1.6109 7.01961C1.65252 6.99994 1.69461 6.98129 1.73716 6.9637C1.7797 6.9461 1.82264 6.92954 1.86601 6.91404C1.90937 6.89855 1.95307 6.88412 1.99714 6.87078C2.04121 6.85744 2.08557 6.84517 2.13024 6.83401C2.17491 6.82284 2.21982 6.81277 2.26498 6.80381C2.31013 6.79484 2.3555 6.78698 2.40105 6.78025C2.44659 6.77352 2.49228 6.76791 2.53811 6.76341C2.58393 6.75893 2.62983 6.75555 2.67583 6.75332C2.72181 6.75109 2.76783 6.74998 2.81387 6.75L2.81387 3.9375C2.81387 3.9191 2.81433 3.90069 2.81522 3.8823C2.81612 3.8639 2.81747 3.84555 2.81929 3.82723C2.8211 3.8089 2.82335 3.79063 2.82605 3.77242C2.82874 3.75421 2.83189 3.73607 2.83549 3.71802C2.83908 3.69997 2.8431 3.682 2.84759 3.66414C2.85207 3.64628 2.85697 3.62855 2.86232 3.61093C2.86766 3.5933 2.87343 3.57583 2.87963 3.5585C2.88584 3.54117 2.89246 3.52399 2.89951 3.50698C2.90656 3.48998 2.91401 3.47314 2.92189 3.45649C2.92975 3.43985 2.93803 3.42341 2.94671 3.40719C2.95539 3.39094 2.96446 3.37493 2.97392 3.35913C2.98339 3.34334 2.99324 3.3278 3.00347 3.31249C3.0137 3.29718 3.0243 3.28212 3.03527 3.26733C3.04624 3.25255 3.05756 3.23803 3.06923 3.22381C3.08092 3.20957 3.09294 3.19563 3.1053 3.18199C3.11766 3.16835 3.13035 3.15503 3.14337 3.142C3.1564 3.12898 3.16972 3.11629 3.18336 3.10393C3.197 3.09157 3.21094 3.07955 3.22518 3.06786C3.2394 3.05619 3.25392 3.04487 3.26871 3.0339C3.28349 3.02293 3.29854 3.01233 3.31385 3.0021C3.32916 2.99187 3.34471 2.98202 3.3605 2.97255C3.3763 2.96309 3.39231 2.95402 3.40856 2.94534C3.42478 2.93665 3.44122 2.92838 3.45786 2.92052C3.47451 2.91264 3.49135 2.90519 3.50835 2.89814C3.52536 2.89109 3.54254 2.88446 3.55987 2.87826C3.5772 2.87205 3.59467 2.86629 3.6123 2.86095C3.62992 2.8556 3.64765 2.8507 3.66551 2.84621C3.68337 2.84173 3.70134 2.83771 3.71939 2.83412C3.73744 2.83052 3.75558 2.82737 3.77379 2.82468C3.79201 2.82197 3.81027 2.81972 3.8286 2.81791C3.84692 2.8161 3.86527 2.81475 3.88368 2.81385C3.90206 2.81296 3.92047 2.8125 3.93887 2.8125L6.75137 2.8125C6.75137 2.76646 6.7525 2.72046 6.75476 2.67449C6.75701 2.62853 6.76039 2.58263 6.76491 2.53682C6.76942 2.49101 6.77505 2.44535 6.78182 2.39982C6.78857 2.35429 6.79642 2.30896 6.80541 2.26382C6.81439 2.21866 6.82448 2.17376 6.83566 2.12912C6.84684 2.08447 6.85911 2.04012 6.87248 1.99607C6.88584 1.95203 6.90028 1.90833 6.91578 1.865C6.93128 1.82166 6.94784 1.77873 6.96546 1.73621C6.98307 1.69368 7.00172 1.65161 7.02141 1.61C7.04108 1.5684 7.06177 1.5273 7.08347 1.48671C7.10517 1.44611 7.12784 1.40607 7.1515 1.36659C7.17518 1.32711 7.19979 1.28824 7.22537 1.24996C7.25094 1.21169 7.27743 1.17407 7.30485 1.1371C7.33228 1.10013 7.36058 1.06385 7.38977 1.02827C7.41897 0.992689 7.44903 0.957846 7.47995 0.923741C7.51087 0.889636 7.5426 0.85631 7.57513 0.823762C7.60767 0.791216 7.641 0.759486 7.67512 0.728575C7.70922 0.697663 7.74406 0.667608 7.77964 0.638408C7.81522 0.609209 7.8515 0.580899 7.88846 0.553479C7.92543 0.526059 7.96307 0.499563 8.00133 0.473992C8.0396 0.44842 8.07848 0.423802 8.11796 0.400138C8.15743 0.376474 8.19747 0.353793 8.23808 0.332096C8.27866 0.3104 8.31976 0.28971 8.36137 0.27003C8.40298 0.250351 8.44506 0.231704 8.48758 0.214089C8.5301 0.196474 8.57303 0.179914 8.61637 0.164408C8.65971 0.148901 8.7034 0.134466 8.74744 0.121104C8.79149 0.107744 8.83584 0.0954715 8.88049 0.0842871C8.92513 0.0731027 8.97003 0.0630211 9.01519 0.0540422C9.06033 0.0450621 9.10566 0.0371953 9.15119 0.0304418C9.19672 0.0236871 9.24238 0.018054 9.28819 0.0135422C9.334 0.00903168 9.3799 0.00564666 9.42587 0.00338729C9.47183 0.00112908 9.51783 0 9.56387 0ZM9.56387 1.305C8.73137 1.305 8.05637 1.98 8.05637 2.8125L8.05637 4.1175L4.34387 4.1175C4.3402 4.1175 4.33651 4.11759 4.33283 4.11776C4.32916 4.11796 4.32548 4.11822 4.32181 4.11859C4.31815 4.11894 4.3145 4.1194 4.31086 4.11994C4.30722 4.12049 4.30358 4.1211 4.29998 4.12182C4.29638 4.12254 4.29277 4.12335 4.2892 4.12425C4.28563 4.12515 4.28208 4.12611 4.27855 4.12719C4.27504 4.12826 4.27154 4.1294 4.26807 4.13065C4.26461 4.1319 4.26117 4.13321 4.25777 4.13462C4.25436 4.13604 4.25099 4.13754 4.24767 4.1391C4.24434 4.14067 4.24106 4.14232 4.2378 4.14406C4.23455 4.1458 4.23135 4.14763 4.22819 4.14951C4.22504 4.15141 4.22193 4.15338 4.21887 4.15542C4.2158 4.15747 4.21279 4.15958 4.20984 4.16178C4.20688 4.16398 4.20398 4.16623 4.20114 4.16856C4.19829 4.1709 4.19549 4.17331 4.19277 4.17579C4.19004 4.17827 4.18737 4.1808 4.18477 4.1834C4.18217 4.186 4.17964 4.18867 4.17716 4.1914C4.17468 4.19412 4.17227 4.19692 4.16994 4.19977C4.1676 4.20261 4.16535 4.20551 4.16315 4.20847C4.16095 4.21142 4.15884 4.21443 4.15679 4.2175C4.15475 4.22056 4.15278 4.22367 4.15088 4.22684C4.149 4.22998 4.14717 4.23318 4.14543 4.23643C4.14369 4.23969 4.14204 4.24297 4.14047 4.24629C4.13891 4.24962 4.13742 4.25299 4.13599 4.2564C4.13459 4.25979 4.13327 4.26324 4.13202 4.2667C4.13077 4.27017 4.12963 4.27366 4.12856 4.27718C4.12748 4.28071 4.12652 4.28426 4.12562 4.28783C4.12472 4.2914 4.12392 4.295 4.1232 4.29861C4.12247 4.30221 4.12186 4.30585 4.12131 4.30949C4.12077 4.31313 4.12031 4.31678 4.11996 4.32044C4.11959 4.32411 4.11933 4.32779 4.11913 4.33146C4.11896 4.33513 4.11887 4.33883 4.11887 4.3425L4.11887 8.055L2.81387 8.055C2.78921 8.055 2.76455 8.0556 2.7399 8.05681C2.71526 8.05802 2.69067 8.05985 2.66611 8.06226C2.64155 8.06467 2.61708 8.06769 2.59267 8.07131C2.56827 8.07493 2.54398 8.07915 2.51977 8.08397C2.49557 8.08879 2.4715 8.09418 2.44758 8.10018C2.42365 8.10617 2.39987 8.11276 2.37626 8.11992C2.35266 8.12707 2.32924 8.1348 2.306 8.14312C2.28278 8.15143 2.25977 8.16031 2.23697 8.16975C2.21418 8.17919 2.19164 8.18919 2.16933 8.19974C2.14703 8.21029 2.125 8.22138 2.10324 8.233C2.08148 8.24463 2.06002 8.2568 2.03887 8.26947C2.01771 8.28214 1.99686 8.29535 1.97634 8.30906C1.95583 8.32277 1.93567 8.33697 1.91586 8.35167C1.89605 8.36636 1.87659 8.38153 1.85752 8.39719C1.83844 8.41284 1.81978 8.42894 1.80149 8.44552C1.78321 8.46209 1.76535 8.47909 1.74792 8.49654C1.73047 8.51398 1.71346 8.53184 1.69689 8.55012C1.68032 8.5684 1.66421 8.58707 1.64857 8.60614C1.63291 8.62522 1.61773 8.64468 1.60304 8.66449C1.58834 8.6843 1.57414 8.70446 1.56043 8.72497C1.54673 8.74549 1.53354 8.76633 1.52084 8.7875C1.50816 8.80864 1.49601 8.83011 1.48437 8.85187C1.47274 8.87363 1.46166 8.89566 1.45111 8.91796C1.44056 8.94027 1.43057 8.9628 1.42112 8.9856C1.41168 9.0084 1.4028 9.03141 1.39449 9.05463C1.38618 9.07787 1.37845 9.10128 1.37129 9.12489C1.36413 9.1485 1.35755 9.17228 1.35155 9.19621C1.34556 9.22013 1.34016 9.24419 1.33534 9.2684C1.33053 9.29261 1.32631 9.3169 1.32269 9.3413C1.31906 9.36571 1.31605 9.39018 1.31363 9.41474C1.31122 9.43929 1.3094 9.46389 1.30818 9.48853C1.30698 9.51318 1.30637 9.53784 1.30637 9.5625C1.30637 9.58716 1.30698 9.61182 1.30818 9.63647C1.3094 9.66111 1.31122 9.68571 1.31363 9.71026C1.31605 9.73482 1.31906 9.75929 1.32269 9.7837C1.32631 9.8081 1.33053 9.83239 1.33534 9.8566C1.34016 9.88081 1.34556 9.90487 1.35155 9.92879C1.35755 9.95272 1.36413 9.9765 1.37129 10.0001C1.37845 10.0237 1.38618 10.0471 1.39449 10.0704C1.4028 10.0936 1.41168 10.1166 1.42112 10.1394C1.43057 10.1622 1.44056 10.1847 1.45111 10.207C1.46166 10.2293 1.47274 10.2514 1.48437 10.2731C1.49601 10.2949 1.50816 10.3164 1.52084 10.3375C1.53354 10.3587 1.54673 10.3795 1.56043 10.4C1.57414 10.4205 1.58834 10.4407 1.60304 10.4605C1.61773 10.4803 1.63291 10.4998 1.64857 10.5189C1.66421 10.5379 1.68032 10.5566 1.69689 10.5749C1.71346 10.5932 1.73047 10.611 1.74792 10.6285C1.76535 10.6459 1.78321 10.6629 1.80149 10.6795C1.81978 10.6961 1.83844 10.7122 1.85752 10.7278C1.87659 10.7435 1.89605 10.7586 1.91586 10.7733C1.93567 10.788 1.95583 10.8022 1.97634 10.8159C1.99686 10.8296 2.01771 10.8428 2.03887 10.8555C2.06002 10.8682 2.08148 10.8804 2.10324 10.892C2.125 10.9036 2.14703 10.9147 2.16933 10.9253C2.19164 10.9358 2.21418 10.9458 2.23697 10.9552C2.25977 10.9647 2.28278 10.9736 2.306 10.9819C2.32924 10.9902 2.35266 10.9979 2.37626 11.0051C2.39987 11.0122 2.42365 11.0188 2.44758 11.0248C2.4715 11.0308 2.49557 11.0362 2.51977 11.041C2.54398 11.0458 2.56827 11.0501 2.59267 11.0537C2.61708 11.0573 2.64155 11.0603 2.66611 11.0627C2.69067 11.0651 2.71526 11.067 2.7399 11.0682C2.76455 11.0694 2.78921 11.07 2.81387 11.07L4.11887 11.07L4.11887 14.7825C4.11887 14.9062 4.22012 15.0075 4.34387 15.0075L6.68387 15.0075L6.68387 14.4788C6.68387 12.9701 7.85837 11.7349 9.39737 11.6404L9.592 11.6336L9.80237 11.6449C9.84591 11.6491 9.88935 11.6542 9.93264 11.6604C9.97596 11.6666 10.0191 11.6738 10.0621 11.682C10.105 11.6902 10.1478 11.6993 10.1904 11.7095C10.2329 11.7196 10.2752 11.7307 10.3173 11.7428C10.3593 11.7549 10.401 11.768 10.4425 11.782C10.4839 11.796 10.525 11.811 10.5658 11.8269C10.6065 11.8428 10.6469 11.8597 10.6868 11.8775C10.7268 11.8952 10.7663 11.9139 10.8054 11.9335C10.8446 11.9531 10.8832 11.9736 10.9214 11.995C10.9595 12.0164 10.9972 12.0386 11.0343 12.0618C11.0715 12.0849 11.108 12.1088 11.1441 12.1337C11.1801 12.1585 11.2155 12.1841 11.2504 12.2105C11.2852 12.237 11.3195 12.2642 11.3531 12.2922C11.3867 12.3202 11.4196 12.349 11.4519 12.3785C11.4841 12.4081 11.5157 12.4384 11.5466 12.4693C11.5775 12.5003 11.6076 12.532 11.637 12.5644C11.6664 12.5968 11.6951 12.6298 11.723 12.6635C11.7509 12.6972 11.7779 12.7316 11.8043 12.7665C11.8306 12.8015 11.8561 12.837 11.8807 12.8731C11.9054 12.9093 11.9292 12.9459 11.9522 12.9832C11.9752 13.0204 11.9973 13.0581 12.0185 13.0964C12.0397 13.1346 12.0601 13.1733 12.0795 13.2125C12.099 13.2517 12.1175 13.2913 12.1351 13.3314C12.1528 13.3714 12.1695 13.4118 12.1852 13.4526C12.201 13.4934 12.2158 13.5346 12.2297 13.5761C12.2435 13.6176 12.2564 13.6593 12.2684 13.7014C12.2803 13.7435 12.2913 13.7859 12.3012 13.8284C12.3112 13.871 12.3202 13.9138 12.3282 13.9569C12.3362 13.9999 12.3433 14.043 12.3493 14.0864C12.3553 14.1297 12.3603 14.1731 12.3643 14.2167C12.3684 14.2603 12.3714 14.3039 12.3734 14.3476C12.3754 14.3913 12.3764 14.435 12.3764 14.4788L12.3764 15.0075L14.7839 15.0075C14.7875 15.0075 14.7912 15.0074 14.7949 15.0072C14.7986 15.007 14.8023 15.0068 14.8059 15.0064C14.8096 15.0061 14.8132 15.0056 14.8169 15.0051C14.8205 15.0045 14.8242 15.0039 14.8278 15.0032C14.8314 15.0025 14.835 15.0016 14.8385 15.0007C14.8421 14.9999 14.8457 14.9989 14.8492 14.9978C14.8527 14.9967 14.8562 14.9956 14.8597 14.9944C14.8631 14.9931 14.8666 14.9918 14.87 14.9904C14.8734 14.989 14.8768 14.9875 14.8801 14.9859C14.8834 14.9843 14.8867 14.9827 14.8899 14.9809C14.8932 14.9792 14.8964 14.9774 14.8996 14.9755C14.9027 14.9736 14.9058 14.9716 14.9089 14.9696C14.9119 14.9675 14.915 14.9654 14.9179 14.9632C14.9209 14.961 14.9238 14.9588 14.9266 14.9564C14.9295 14.9541 14.9322 14.9517 14.935 14.9492C14.9377 14.9467 14.9404 14.9442 14.943 14.9416C14.9456 14.939 14.9481 14.9363 14.9506 14.9336C14.9531 14.9309 14.9555 14.9281 14.9578 14.9252C14.9601 14.9224 14.9624 14.9195 14.9646 14.9165C14.9668 14.9136 14.9689 14.9106 14.971 14.9075C14.973 14.9044 14.975 14.9013 14.9769 14.8982C14.9787 14.895 14.9806 14.8918 14.9823 14.8886C14.9841 14.8853 14.9857 14.882 14.9873 14.8787C14.9888 14.8754 14.9903 14.872 14.9918 14.8686C14.9932 14.8652 14.9945 14.8618 14.9957 14.8583C14.997 14.8548 14.9981 14.8513 14.9992 14.8478C15.0003 14.8443 15.0012 14.8407 15.0021 14.8372C15.003 14.8336 15.0038 14.83 15.0045 14.8264C15.0053 14.8228 15.0059 14.8191 15.0064 14.8155C15.007 14.8119 15.0074 14.8082 15.0078 14.8046C15.0082 14.8009 15.0084 14.7972 15.0086 14.7935C15.0088 14.7899 15.0089 14.7862 15.0089 14.7825L15.0089 4.3425C15.0089 4.33883 15.0088 4.33513 15.0086 4.33146C15.0084 4.32779 15.0082 4.32411 15.0078 4.32044C15.0074 4.31678 15.007 4.31313 15.0064 4.30949C15.0059 4.30585 15.0053 4.30221 15.0045 4.29861C15.0038 4.295 15.003 4.2914 15.0021 4.28783C15.0012 4.28426 15.0003 4.28071 14.9992 4.27718C14.9981 4.27366 14.997 4.27017 14.9957 4.2667C14.9945 4.26324 14.9932 4.25979 14.9918 4.2564C14.9903 4.25299 14.9888 4.24962 14.9873 4.24629C14.9857 4.24297 14.984 4.23969 14.9823 4.23643C14.9806 4.23318 14.9787 4.22998 14.9769 4.22682C14.975 4.22367 14.973 4.22056 14.971 4.2175C14.9689 4.21443 14.9668 4.21142 14.9646 4.20847C14.9624 4.20551 14.9601 4.20261 14.9578 4.19977C14.9555 4.19692 14.9531 4.19412 14.9506 4.1914C14.9481 4.18867 14.9456 4.186 14.943 4.1834C14.9404 4.1808 14.9377 4.17827 14.935 4.17579C14.9322 4.17331 14.9295 4.1709 14.9266 4.16856C14.9238 4.16623 14.9209 4.16398 14.9179 4.16178C14.9149 4.15958 14.9119 4.15747 14.9089 4.15542C14.9058 4.15338 14.9027 4.15141 14.8995 4.14951C14.8964 4.14763 14.8932 4.1458 14.8899 4.14406C14.8867 4.14232 14.8834 4.14067 14.8801 4.1391C14.8768 4.13754 14.8734 4.13604 14.87 4.13462C14.8666 4.13321 14.8631 4.1319 14.8597 4.13065C14.8562 4.1294 14.8527 4.12826 14.8492 4.12719C14.8457 4.12611 14.8421 4.12515 14.8385 4.12425C14.835 4.12335 14.8314 4.12254 14.8278 4.12182C14.8242 4.1211 14.8205 4.12049 14.8169 4.11994C14.8132 4.1194 14.8096 4.11894 14.8059 4.11859C14.8023 4.11822 14.7986 4.11796 14.7949 4.11776C14.7912 4.11759 14.7875 4.1175 14.7839 4.1175L11.0714 4.1175L11.0714 2.8125C11.0714 1.98 10.3964 1.305 9.56387 1.305Z"   fill="#FFFFFF" >
    </path>
</svg>
