<svg xmlns="http://www.w3.org/2000/svg" xmlns:xlink="http://www.w3.org/1999/xlink" width="14.625" height="14.625" viewBox="0 0 14.625 14.625" fill="none">
    <path d="M3.08672 3.52969C3.17109 3.41016 3.21328 3.36797 3.39609 3.36797C3.39609 1.575 4.41563 0.00703129 6.53906 0.00703129L6.53906 0C8.65547 0 9.675 1.56797 9.675 3.36094C9.86484 3.36094 9.9 3.40313 9.98438 3.52266C10.0688 3.64219 10.0266 4.725 9.48516 5.06953C9.35156 5.13984 9.19687 5.11875 9.16875 5.11172C9.12656 5.18906 9.07031 5.40703 8.97188 5.69531C7.90312 6.075 6.98906 6.77812 6.35625 7.68516C4.40156 7.55156 4.03594 5.38594 3.89531 5.11172C3.86719 5.11875 3.71953 5.13281 3.57891 5.06953C3.04453 4.73203 3.00234 3.64922 3.08672 3.52969ZM5.39297 10.6945L3.90234 8.23359C1.87031 8.84531 0.639844 9.54141 0.39375 9.88594C0.0632813 10.2305 0 10.9688 0 10.9688L0 14.0133C0 14.1328 0.105469 14.625 0.667969 14.625L7.01719 14.625C6.01875 13.6477 5.39297 12.2836 5.39297 10.7719L5.39297 10.6945ZM14.4773 14.4703C14.2805 14.6672 13.95 14.6672 13.7531 14.4703L12.6633 13.3875C12.0656 13.8375 11.3273 14.1117 10.5188 14.1117C8.53594 14.1117 6.92578 12.5016 6.92578 10.5188C6.92578 8.53594 8.53594 6.92578 10.5188 6.92578C12.5016 6.92578 14.1117 8.53594 14.1117 10.5188C14.1117 11.3273 13.8375 12.0586 13.3875 12.6633L14.4773 13.7461C14.6742 13.943 14.6742 14.2664 14.4773 14.4703ZM12.3328 12.3258C12.818 11.8406 13.0852 11.2008 13.0852 10.5117C13.0852 9.82969 12.818 9.18281 12.3328 8.69766C11.8477 8.2125 11.2008 7.94531 10.5188 7.94531C9.83672 7.94531 9.18984 8.2125 8.70469 8.69766C8.21953 9.18281 7.95234 9.82266 7.95234 10.5117C7.95234 11.1938 8.21953 11.8406 8.70469 12.3258C9.18984 12.8109 9.83672 13.0781 10.5188 13.0781C11.2078 13.0781 11.8477 12.8109 12.3328 12.3258Z"   fill="#FFFFFF" >
    </path>
</svg>
