<svg xmlns="http://www.w3.org/2000/svg" xmlns:xlink="http://www.w3.org/1999/xlink" width="11" height="11" viewBox="0 0 11 11" fill="none">
    <path d="M2.99083 0.232697C2.75279 0.0537428 2.47742 0 2.20852 0C1.50369 0 1.00084 0.52932 0.596479 0.954863C0.534125 1.02036 0.473154 1.08479 0.413377 1.14425C-0.594098 2.15204 0.223548 5.12701 3.0469 7.95055C5.29957 10.2015 7.46997 11 8.64414 11C9.16372 11 9.58254 10.8563 9.85515 10.5841C9.91543 10.5239 9.9801 10.4623 10.0461 10.3994C10.4843 9.98247 11.0295 9.4639 10.9988 8.73186C10.9778 8.22901 10.6875 7.7594 10.1119 7.29696C9.45651 6.77053 8.92857 6.52564 8.45079 6.52564C7.8275 6.52564 7.42755 6.93031 7.07504 7.28729L6.99697 7.3661C6.86365 7.35014 6.36582 7.19658 5.08486 5.91549C3.78057 4.61138 3.64454 4.11488 3.63204 4.00186L3.70904 3.92618C4.45257 3.19364 4.9641 2.46036 3.70118 0.888612C3.69308 0.878492 3.68566 0.868686 3.67686 0.85932C3.51726 0.690361 3.17645 0.37224 2.99083 0.232698L2.99083 0.232697Z"   fill="#F79000" >
    </path>
</svg>
