<svg xmlns="http://www.w3.org/2000/svg" xmlns:xlink="http://www.w3.org/1999/xlink" width="16" height="14.46435546875" viewBox="0 0 16 14.46435546875" fill="none">
    <path d="M0.61177 3.19129L6.74279 0.276802C7.51609 -0.0907841 8.41343 -0.0924551 9.18809 0.272231L15.3846 3.18959C15.9201 3.44172 16.1498 4.08007 15.8976 4.61541C15.7915 4.84058 15.6103 5.02179 15.3852 5.12793L9.18959 8.0492C8.41409 8.41484 7.51544 8.41316 6.74131 8.04463L0.611216 5.12622C0.0767701 4.87179 -0.150141 4.23243 0.104395 3.69818C0.210282 3.47596 0.389446 3.29696 0.61177 3.19129ZM14.2053 6.99967L14.2053 8.71395C14.2053 9.03449 14.4651 9.29431 14.7857 9.29431C15.1062 9.29431 15.366 9.03449 15.366 8.71395L15.366 6.99967C15.366 6.67913 15.1062 6.41931 14.7857 6.41931C14.4651 6.41931 14.2053 6.67913 14.2053 6.99967ZM13.0012 7.23223L8.90977 9.19723C8.32337 9.47886 7.64078 9.47886 7.05438 9.19723L2.96291 7.23225C2.92431 7.21371 2.88204 7.20409 2.83921 7.20409C2.68141 7.20409 2.5535 7.332 2.5535 7.4898L2.5535 11.431C2.5535 12.3178 3.06646 13.1246 3.8695 13.5008C5.24036 14.1431 6.61122 14.4642 7.98207 14.4642C9.35293 14.4642 10.7238 14.1431 12.0946 13.5008C12.8977 13.1246 13.4106 12.3178 13.4106 11.431L13.4106 7.4898C13.4107 7.44698 13.401 7.40471 13.3825 7.36611C13.3142 7.22386 13.1435 7.16393 13.0012 7.23223Z" fill-rule="evenodd"  fill="#333333" >
    </path>
</svg>
