<svg xmlns="http://www.w3.org/2000/svg" xmlns:xlink="http://www.w3.org/1999/xlink" width="29.98974609375" height="27.30712890625" viewBox="0 0 29.98974609375 27.30712890625" fill="none">
    <path d="M14.9949 0C6.71047 0 0 6.71047 0 14.9949C0 20.0953 2.54637 24.599 6.4375 27.307C7.19493 24.6743 9.10102 22.6896 11.6945 21.7766C11.0225 20.7455 10.7818 20.1624 10.8126 19.8761C10.2362 19.4514 9.72738 18.9419 9.30334 18.3651C1.94904 17.5256 8.24169 2.74882 14.9983 6.30241C16.5333 5.49483 18.0357 5.62711 19.3587 6.3245C19.9035 5.69874 20.5878 5.2299 20.7576 5.69373L21.266 7.07729L21.7462 8.39252L21.8043 8.46695L23.2205 8.73066L24.6698 8.99705C25.4127 9.1364 24.1935 10.8372 23.3806 11.2986C24.6011 14.527 24.1622 18.0301 20.6797 18.3745C20.3208 18.8608 19.9013 19.2993 19.4313 19.6794C19.7043 19.8193 19.5673 20.4226 18.5979 21.8902C21.038 22.8473 22.8265 24.7764 23.5532 27.3052C27.4433 24.5972 29.9897 20.0941 29.9897 14.9949C29.9897 6.71047 23.2757 1.05384e-15 14.9949 0Z"   fill="#F8F7F8" >
    </path>
</svg>
