<svg xmlns="http://www.w3.org/2000/svg" xmlns:xlink="http://www.w3.org/1999/xlink" width="18" height="18" viewBox="0 0 18 18" fill="none">
    <path d="M9 18C4.02991 18 0 13.9701 0 9C0 4.02991 4.02991 0 9 0C13.9701 0 18 4.02991 18 9C18 13.9701 13.9701 18 9 18ZM9.00011 1.5269C13.1265 1.5269 16.4733 4.87378 16.4733 9.00011C16.4733 13.1265 13.1265 16.4733 9.00011 16.4733C4.87378 16.4733 1.5269 13.1265 1.5269 9.00011C1.5269 4.87378 4.87378 1.5269 9.00011 1.5269Z" fill-rule="evenodd"  fill="#FFFFFF" >
    </path>
    <path d="M11.0941 4.80937C10.5314 4.28636 9.78868 4 9.00093 4C8.21319 4 7.47046 4.28835 6.90778 4.80937C6.3226 5.35227 6 6.0821 6 6.86364L6 7.01477C6 7.10227 6.06752 7.17386 6.15005 7.17386L7.05033 7.17386C7.13285 7.17386 7.20037 7.10227 7.20037 7.01477L7.20037 6.86364C7.20037 5.98665 8.00875 5.27273 9.00093 5.27273C9.99312 5.27273 10.8015 5.98665 10.8015 6.86364C10.8015 7.4821 10.3889 8.04886 9.74929 8.30937C9.35167 8.47046 9.01406 8.75284 8.77211 9.12273C8.52641 9.50057 8.39887 9.95398 8.39887 10.4134L8.39887 10.8409C8.39887 10.9284 8.46639 11 8.54892 11L9.4492 11C9.53172 11 9.59925 10.9284 9.59925 10.8409L9.59925 10.3895C9.59925 9.99773 9.83182 9.63977 10.1788 9.49858C11.2854 9.04716 12 8.01307 12 6.86364C12.0019 6.0821 11.6793 5.35227 11.0941 4.80937Z"   fill="#FFFFFF" >
    </path>
    <path d="M8 13C8 13.5523 8.44771 14 9 14C9.55228 14 10 13.5523 10 13C10 12.4477 9.55228 12 9 12C8.44771 12 8 12.4477 8 13Z"   fill="#FFFFFF" >
    </path>
</svg>
