<svg xmlns="http://www.w3.org/2000/svg" xmlns:xlink="http://www.w3.org/1999/xlink" width="13.71435546875" height="13.71484375" viewBox="0 0 13.71435546875 13.71484375" fill="none">
    <path d="M1.87062 3.26567L3.11738 3.26567L3.11738 1.30503C3.11738 0.584649 3.6748 0 4.36413 0L9.35115 0C10.0395 0 10.5979 0.584649 10.5979 1.30503L10.5979 3.26567L11.8447 3.26567C12.8745 3.26279 13.7115 4.13921 13.7143 5.22321L13.7143 6.53032L8.62115 6.53032C8.35447 5.74668 7.64845 5.22421 6.85764 5.2253C6.04334 5.2253 5.35004 5.76923 5.09315 6.53033L0 6.53033L0 5.22322C0.00131065 4.70248 0.199162 4.20364 0.55 3.83649C0.900839 3.46935 1.3759 3.26401 1.87062 3.26567ZM0 11.7562L0 7.8369L5.09315 7.8369C5.35961 8.62131 6.06621 9.14434 6.85763 9.14297C7.67096 9.14297 8.36426 8.598 8.62115 7.83794L13.7143 7.83794L13.7143 11.7562C13.7132 12.2769 13.5156 12.7759 13.165 13.1432C12.8143 13.5105 12.3394 13.7161 11.8447 13.7148L1.87062 13.7148C1.37573 13.7164 0.900518 13.5109 0.549651 13.1436C0.198784 12.7762 0.00104838 12.2771 0 11.7562Z" fill-rule="evenodd"  fill="#1F2329" >
    </path>
</svg>
