<svg xmlns="http://www.w3.org/2000/svg" xmlns:xlink="http://www.w3.org/1999/xlink" width="56" height="21" viewBox="0 0 56 21" fill="none">
    <path    stroke="rgba(255, 255, 255, 1)" stroke-width="0.4"  stroke-linecap="round"  d="M44.777 14.8223C44.777 14.8223 44.6221 15.3239 44.9688 15.9804">
    </path>
    <path d="M32.6403 6.06635L31.9054 11.0189L32.3779 11.3689L30.8556 18.3514L28.5109 20.9765L33.5327 20.9765C33.5327 20.9765 34.3778 20.9735 35.055 20.434C35.055 20.434 35.7395 19.8973 35.8599 19.0515L36.7523 12.8039L37.6272 7.86887L37.1723 10.0564L37.2073 9.74138L37.7497 6.06635L39.132 6.06635L39.552 3.30133L38.1347 3.30133L38.6246 0.0288086L32.6578 0.0288086L33.3928 0.868815L33.0253 3.30133L31.0131 3.30133L30.5931 6.06635L32.6403 6.06635ZM54.1627 9.16388C54.1627 9.16388 54.8122 8.5747 54.9326 7.72887L55.9999 0.553813L41.1268 0.553813L40.7243 3.31883L42.9816 3.31883L40.1644 9.91638L45.0288 9.91638L47.8634 3.31883L51.118 3.31883L50.4531 7.85137L48.4759 9.74138L52.6228 9.74138C52.6228 9.74138 53.5004 9.74721 54.1627 9.16388ZM52.7103 20.4515L54.0927 10.9139L39.4645 10.9139L38.0822 20.4515L52.7103 20.4515ZM49.8689 15.3125C49.8689 15.997 49.6444 16.629 49.265 17.1389L49.9472 17.9059C50.2683 18.267 50.236 18.82 49.875 19.1412C49.514 19.4624 48.961 19.4301 48.6399 19.0691L47.8578 18.1898C47.53 18.3096 47.176 18.375 46.8068 18.375C45.1156 18.375 43.7447 17.0039 43.7447 15.3125C43.7447 13.6211 45.1156 12.25 46.8068 12.25C48.498 12.25 49.8689 13.6211 49.8689 15.3125Z" fill-rule="evenodd"  fill="#FFFFFF" >
    </path>
    <ellipse cx="7.234107971191406" cy="2.0403571128845215" rx="2.0174331665039062" ry="1.9632086753845215"   fill="#FFFFFF" >
    </ellipse>
    <path     fill="#FFFFFF"  d="M7.73396 21L12.6159 12.74L13.9982 10.5L14.1557 9.97498L14.8206 5.33749L11.7935 5.33749L12.1609 2.76499L15.1706 2.76499L15.4155 1.1025L14.4532 0L20.6124 0L20.1925 2.76499L25.4068 2.76499L24.3745 9.97498L24.3745 10.5L20.9274 10.5L19.2476 10.5L23.5346 21L18.1452 21L16.0455 15.225L12.6684 21L7.73396 21ZM4.82931 6.21249L4.14689 4.98749C4.14689 4.98749 5.90949 6.21249 6.99905 6.21249C8.08861 6.21249 9.18629 5.33749 9.18629 5.33749L6.15915 21L2.3446 20.965L4.82931 6.21249ZM19.6325 5.33749L18.9326 9.97498L20.2625 9.97498L20.9274 5.33749L19.6325 5.33749Z">
    </path>
    <path d="M0.874893 12.25L39.3702 7L38.4953 11.375L0 14L0.874893 12.25Z"   fill="#FFFFFF" >
    </path>
</svg>
