<svg xmlns="http://www.w3.org/2000/svg" xmlns:xlink="http://www.w3.org/1999/xlink" width="88" height="33" viewBox="0 0 88 33" fill="none">
    <path    stroke="rgba(31, 124, 255, 1)" stroke-width="1"  stroke-linecap="round"  d="M70.3633 23.2922C70.3633 23.2922 70.1199 24.0805 70.6647 25.1122">
    </path>
    <path d="M51.2923 9.53298L50.1375 17.3155L50.8799 17.8655L48.4877 28.8381L44.8031 32.9632L52.6946 32.9632C52.6946 32.9632 54.0226 32.9586 55.0868 32.1106C55.0868 32.1106 56.1625 31.2673 56.3517 29.9381L57.754 20.1206L59.1288 12.3655L58.4139 15.803L58.4689 15.308L59.3213 9.53298L61.4935 9.53298L62.1535 5.18795L59.9262 5.18795L60.6961 0.0454102L51.3198 0.0454102L52.4747 1.36542L51.8972 5.18795L48.7351 5.18795L48.0752 9.53298L51.2923 9.53298ZM85.1131 14.4005C85.1131 14.4005 86.1337 13.4747 86.3229 12.1455L88.0002 0.870416L64.6281 0.870416L63.9957 5.21545L67.5428 5.21545L63.1158 15.583L70.7599 15.583L75.2143 5.21545L80.3287 5.21545L79.2838 12.338L76.1767 15.308L82.6934 15.308C82.6934 15.308 84.0724 15.3172 85.1131 14.4005ZM82.8309 32.1381L85.0031 17.1505L62.016 17.1505L59.8437 32.1381L82.8309 32.1381ZM78.3665 24.0625C78.3665 25.1385 78.0134 26.132 77.4168 26.9335L78.4881 28.1379C78.9928 28.7052 78.942 29.5744 78.3747 30.0791C77.8074 30.5838 76.9384 30.533 76.4337 29.9657L75.2052 28.5844C74.6904 28.7724 74.1344 28.875 73.5546 28.875C70.897 28.875 68.7426 26.7204 68.7426 24.0625C68.7426 21.4046 70.897 19.25 73.5546 19.25C76.2121 19.25 78.3665 21.4046 78.3665 24.0625Z" fill-rule="evenodd"  fill="#1F7CFF" >
    </path>
    <ellipse cx="11.368499755859375" cy="3.2063827514648438" rx="3.170257568359375" ry="3.0850448608398438"   fill="#1F7CFF" >
    </ellipse>
    <path     fill="#1F7CFF"  d="M12.1536 32.9999L19.8251 20.02L21.9974 16.5L22.2449 15.675L23.2897 8.38748L18.5328 8.38748L19.1102 4.34499L23.8397 4.34499L24.2246 1.7325L22.7123 0L32.3911 0L31.7312 4.34499L39.9252 4.34499L38.3029 15.675L38.3029 16.5L32.8861 16.5L30.2464 16.5L36.9831 32.9999L28.5141 32.9999L25.2145 23.925L19.9076 32.9999L12.1536 32.9999ZM7.5891 9.76248L6.51673 7.83748C6.51673 7.83748 9.28653 9.76248 10.9987 9.76248C12.7109 9.76248 14.4358 8.38748 14.4358 8.38748L9.67885 32.9999L3.68457 32.9449L7.5891 9.76248ZM30.8513 8.38748L29.7515 15.675L31.8412 15.675L32.8861 8.38748L30.8513 8.38748Z">
    </path>
    <path d="M1.37483 19.25L61.8674 11L60.4926 17.875L0 22L1.37483 19.25Z"   fill="#1F7CFF" >
    </path>
</svg>
