<svg xmlns="http://www.w3.org/2000/svg" xmlns:xlink="http://www.w3.org/1999/xlink" width="30" height="30" viewBox="0 0 30 30" fill="none">
    <path fill-rule="evenodd"  fill="rgba(186, 229, 220, 1)"  d="M0 28L0 2C0 0.895431 0.895431 0 2 0L28 0C29.1046 0 30 0.895431 30 2L30 28C30 29.1046 29.1046 30 28 30L2 30C0.895431 30 0 29.1046 0 28ZM2 29C1.44772 29 1 28.5523 1 28L1 2C1 1.44772 1.44772 1 2 1L28 1C28.5523 1 29 1.44772 29 2L29 28C29 28.5523 28.5523 29 28 29L2 29Z">
    </path>
    <g opacity="0">
        <rect x="7" y="7" width="16" height="16"   fill="#000000" >
        </rect>
    </g>
    <path d="M15.8095 15L19.9111 10.1109C19.9798 10.0297 19.922 9.90625 19.8158 9.90625L18.5689 9.90625C18.4954 9.90625 18.4251 9.93906 18.3767 9.99531L14.9939 14.0281L11.6111 9.99531C11.5642 9.93906 11.4939 9.90625 11.4189 9.90625L10.172 9.90625C10.0658 9.90625 10.0079 10.0297 10.0767 10.1109L14.1783 15L10.0767 19.8891C10.0079 19.9703 10.0658 20.0938 10.172 20.0938L11.4189 20.0938C11.4923 20.0938 11.5626 20.0609 11.6111 20.0047L14.9939 15.9719L18.3767 20.0047C18.4236 20.0609 18.4939 20.0938 18.5689 20.0938L19.8158 20.0938C19.922 20.0938 19.9798 19.9703 19.9111 19.8891L15.8095 15Z"   fill="#19AA8D" >
    </path>
</svg>
