<svg xmlns="http://www.w3.org/2000/svg" xmlns:xlink="http://www.w3.org/1999/xlink" width="16" height="14.85400390625" viewBox="0 0 16 14.85400390625" fill="none">
    <g opacity="0">
        <rect x="0" y="0" width="14.85403445149592" height="14.85403445149592"   fill="#000000" >
        </rect>
    </g>
    <path d="M4.34988 10.6538C4.18331 10.8068 3.9359 10.832 3.74195 10.7156L0.250427 8.63496C0.0905432 8.53906 -0.00482571 8.36406 0.00125052 8.17772C0.00732676 7.99138 0.113894 7.82297 0.279685 7.73769L15.2243 0.0686876C15.412 -0.0395052 15.6473 -0.0183897 15.8126 0.121476C15.978 0.261341 16.0379 0.489901 15.9623 0.692871L12.2237 12.7214C12.1807 12.8508 12.088 12.9578 11.966 13.0188C11.844 13.0797 11.7028 13.0897 11.5735 13.0465L6.50202 11.3365C6.33601 11.2859 6.20709 11.1544 6.15977 10.9875C6.11244 10.8205 6.15319 10.6409 6.26795 10.5108L7.29525 9.35017C7.46357 9.14492 7.44778 8.84523 7.25882 8.65881C7.06987 8.47238 6.76999 8.46064 6.56703 8.63171L4.34988 10.6538ZM7.58707 13.2802C7.6188 13.4337 7.57817 13.5934 7.47689 13.7131L6.65765 14.6689C6.52013 14.8352 6.29285 14.8971 6.08999 14.8234C5.88713 14.7497 5.75256 14.5563 5.75389 14.3405L5.75389 12.9816C5.75348 12.8025 5.84639 12.6361 5.99908 12.5425C6.15177 12.4489 6.34219 12.4416 6.50161 12.5232L7.31435 12.9264C7.45478 12.9961 7.55534 13.1266 7.58707 13.2802Z" fill-rule="evenodd"  fill="#FFFFFF" >
    </path>
</svg>
