<svg xmlns="http://www.w3.org/2000/svg" xmlns:xlink="http://www.w3.org/1999/xlink" width="30" height="30" viewBox="0 0 30 30" fill="none">
    <path fill-rule="evenodd"  fill="rgba(186, 229, 220, 1)"  d="M0 28L0 2C0 0.895431 0.895431 0 2 0L28 0C29.1046 0 30 0.895431 30 2L30 28C30 29.1046 29.1046 30 28 30L2 30C0.895431 30 0 29.1046 0 28ZM2 29C1.44772 29 1 28.5523 1 28L1 2C1 1.44772 1.44772 1 2 1L28 1C28.5523 1 29 1.44772 29 2L29 28C29 28.5523 28.5523 29 28 29L2 29Z">
    </path>
    <g opacity="0">
        <rect x="7" y="7" width="16" height="16"   fill="#000000" >
        </rect>
    </g>
    <path d="M20.3878 16.9156C20.4113 16.8516 20.4816 16.8188 20.5457 16.8406L21.4316 17.1453C21.4972 17.1688 21.5316 17.2422 21.5082 17.3078C20.5675 19.8813 18.0988 21.7188 15.2003 21.7188C11.5144 21.7188 8.52222 18.7484 8.48472 15.0688C8.44722 11.3234 11.4535 8.28281 15.1972 8.28125C17.3472 8.27969 19.2613 9.29063 20.491 10.8625L19.5566 11.5938C19.4191 11.4172 19.2691 11.25 19.1097 11.0891C18.6019 10.5813 18.0097 10.1813 17.3519 9.90313C16.6707 9.61406 15.9472 9.46875 15.2003 9.46875C14.4535 9.46875 13.7285 9.61406 13.0503 9.90313C12.3925 10.1813 11.8003 10.5813 11.2925 11.0891C10.7832 11.5969 10.3847 12.1891 10.1066 12.8469C9.81753 13.5281 9.67222 14.2531 9.67222 15C9.67222 15.7469 9.81753 16.4719 10.1035 17.1516C10.3832 17.8094 10.7816 18.4016 11.2894 18.9094C11.7972 19.4172 12.3894 19.8172 13.0472 20.0953C13.7285 20.3844 14.4519 20.5297 15.1988 20.5297C15.9457 20.5297 16.6691 20.3828 17.3503 20.0953C18.0082 19.8172 18.6003 19.4172 19.1082 18.9094C19.6175 18.4016 20.016 17.8094 20.2941 17.1516C20.3269 17.0734 20.3582 16.9953 20.3878 16.9156ZM21.2612 13.0389C21.3393 13.0577 21.4159 12.9983 21.4159 12.9186L21.4284 10.3952C21.4284 10.2905 21.3081 10.2311 21.2268 10.2968L18.7643 12.2202C18.6815 12.2858 18.7096 12.4155 18.8112 12.4405L21.2612 13.0389ZM14.625 11.2656C14.5562 11.2656 14.5 11.3219 14.5 11.3906L14.5 15.6922C14.5 15.7328 14.5187 15.7703 14.5515 15.7938L17.1343 17.6797C17.1906 17.7203 17.2687 17.7094 17.3093 17.6531L17.7562 17.0438C17.7984 16.986 17.7859 16.9078 17.7297 16.8688L15.5015 15.2578L15.5015 11.3906C15.5015 11.3219 15.4453 11.2656 15.3765 11.2656L14.625 11.2656Z" fill-rule="evenodd"  fill="#19AA8D" >
    </path>
</svg>
