<svg xmlns="http://www.w3.org/2000/svg" xmlns:xlink="http://www.w3.org/1999/xlink" width="20" height="20" viewBox="0 0 20 20" fill="none">
    <path d="M10 20C4.4775 20 0 15.5225 0 10C0 4.4775 4.4775 0 10 0C15.5225 0 20 4.4775 20 10C20 15.5225 15.5225 20 10 20ZM10.8333 10.4908L10.8333 5.83084C10.8333 5.3775 10.46 5 10 5C9.53666 5 9.16666 5.37166 9.16666 5.83084L9.16666 10.8358C9.16658 10.8493 9.16683 10.8628 9.1674 10.8762C9.16797 10.8897 9.16888 10.9032 9.17011 10.9166C9.17136 10.93 9.17293 10.9434 9.17482 10.9567C9.17672 10.9701 9.17894 10.9834 9.1815 10.9966C9.18406 11.0098 9.18695 11.023 9.19015 11.0361C9.19336 11.0492 9.19687 11.0622 9.20072 11.0751C9.20457 11.088 9.20873 11.1008 9.2132 11.1135C9.21767 11.1262 9.22246 11.1388 9.22756 11.1513C9.23265 11.1638 9.23806 11.1761 9.24377 11.1883C9.24947 11.2005 9.25547 11.2126 9.26177 11.2245C9.26808 11.2364 9.27466 11.2482 9.28154 11.2598C9.28843 11.2714 9.29558 11.2828 9.30302 11.294C9.31047 11.3052 9.31818 11.3163 9.32617 11.3271C9.33416 11.338 9.34242 11.3486 9.35093 11.3591C9.35943 11.3695 9.3682 11.3798 9.37722 11.3898C9.38623 11.3998 9.39548 11.4096 9.405 11.4192L11.7733 13.7875C11.783 13.7971 11.7928 13.8064 11.8029 13.8155C11.813 13.8246 11.8233 13.8334 11.8338 13.842C11.8444 13.8505 11.8551 13.8589 11.866 13.8669C11.8769 13.875 11.8881 13.8827 11.8994 13.8903C11.9107 13.8977 11.9222 13.905 11.9338 13.9119C11.9455 13.9188 11.9574 13.9255 11.9694 13.9318C11.9813 13.9382 11.9935 13.9443 12.0058 13.95C12.0181 13.9558 12.0305 13.9612 12.0431 13.9664C12.0556 13.9715 12.0683 13.9763 12.0811 13.9809C12.0939 13.9854 12.1068 13.9896 12.1198 13.9935C12.1328 13.9974 12.1459 14.0009 12.1591 14.0042C12.1723 14.0074 12.1856 14.0103 12.1989 14.0129C12.2122 14.0155 12.2256 14.0178 12.239 14.0197C12.2525 14.0216 12.266 14.0232 12.2795 14.0245C12.293 14.0257 12.3065 14.0267 12.3201 14.0273C12.3336 14.0279 12.3472 14.0281 12.3608 14.0281C12.3744 14.028 12.3879 14.0276 12.4015 14.0269C12.4151 14.0261 12.4286 14.0251 12.4421 14.0237C12.4556 14.0223 12.469 14.0205 12.4825 14.0185C12.4959 14.0164 12.5092 14.014 12.5225 14.0113C12.5358 14.0086 12.5491 14.0055 12.5622 14.0021C12.5754 13.9988 12.5884 13.9951 12.6014 13.9911C12.6144 13.9871 12.6272 13.9827 12.64 13.9781C12.6527 13.9734 12.6654 13.9685 12.6779 13.9632C12.6904 13.9579 12.7028 13.9524 12.715 13.9465C12.7272 13.9406 12.7393 13.9344 12.7513 13.9279C12.7632 13.9215 12.775 13.9147 12.7866 13.9077C12.7982 13.9006 12.8096 13.8933 12.8208 13.8857C12.832 13.878 12.8431 13.8702 12.854 13.862C12.8648 13.8538 12.8754 13.8454 12.8859 13.8367C12.8963 13.8281 12.9065 13.8191 12.9165 13.8099C12.9265 13.8008 12.9363 13.7913 12.9458 13.7817C12.9554 13.7721 12.9647 13.7623 12.9738 13.7522C12.9829 13.7422 12.9918 13.7319 13.0004 13.7215C13.009 13.711 13.0174 13.7003 13.0254 13.6894C13.0335 13.6786 13.0413 13.6675 13.0489 13.6562C13.0564 13.645 13.0637 13.6336 13.0707 13.6219C13.0776 13.6103 13.0843 13.5986 13.0907 13.5866C13.0971 13.5747 13.1033 13.5626 13.1091 13.5503C13.1149 13.5381 13.1204 13.5258 13.1256 13.5132C13.1309 13.5007 13.1358 13.4881 13.1403 13.4754C13.145 13.4626 13.1493 13.4498 13.1532 13.4368C13.1572 13.4239 13.1608 13.4108 13.1642 13.3977C13.1675 13.3845 13.1705 13.3713 13.1732 13.3581C13.1759 13.3448 13.1783 13.3314 13.1803 13.3181C13.1824 13.3047 13.1841 13.2912 13.1855 13.2778C13.1869 13.2643 13.1879 13.2508 13.1886 13.2372C13.1894 13.2237 13.1898 13.2102 13.1898 13.1966C13.1899 13.1831 13.1896 13.1695 13.189 13.156C13.1885 13.1424 13.1875 13.1289 13.1863 13.1154C13.185 13.1019 13.1835 13.0885 13.1815 13.0751C13.1796 13.0617 13.1774 13.0483 13.1748 13.035C13.1723 13.0217 13.1694 13.0085 13.1662 12.9953C13.163 12.9821 13.1594 12.969 13.1556 12.9561C13.1518 12.9431 13.1476 12.9302 13.1431 12.9174C13.1387 12.9046 13.1339 12.8919 13.1288 12.8794C13.1237 12.8668 13.1183 12.8544 13.1126 12.8421C13.1069 12.8298 13.1009 12.8176 13.0946 12.8056C13.0883 12.7936 13.0818 12.7818 13.0749 12.7701C13.068 12.7584 13.0609 12.7469 13.0535 12.7356C13.046 12.7243 13.0383 12.7131 13.0303 12.7022C13.0224 12.6912 13.0141 12.6804 13.0056 12.6699C12.9971 12.6593 12.9884 12.649 12.9794 12.6389C12.9704 12.6287 12.9611 12.6188 12.9517 12.6092L10.8333 10.4908Z"   fill="#E5E5E5" >
    </path>
</svg>