<svg xmlns="http://www.w3.org/2000/svg" xmlns:xlink="http://www.w3.org/1999/xlink" width="15.000732421875" height="14.287109375" viewBox="0 0 15.000732421875 14.287109375" fill="none">
    <path     fill="#FAAD14"  d="M10.0189 4.37891L8.00888 0.31431C7.95338 0.202873 7.86338 0.112866 7.75238 0.0585759C7.47188 -0.0800062 7.13138 0.035717 6.99188 0.31431L4.98188 4.37891L0.484888 5.03039C0.361888 5.04896 0.247888 5.10611 0.160888 5.19469C-0.0566116 5.41899 -0.0536116 5.77616 0.171388 5.99475L3.42488 9.15928L2.65688 13.6253C2.63588 13.7482 2.65538 13.8754 2.71388 13.9839C2.85788 14.2597 3.20138 14.3683 3.47888 14.2211L7.50038 12.1124L11.5219 14.2211C11.6329 14.2797 11.7604 14.2982 11.8819 14.2782C12.1909 14.2254 12.3979 13.9339 12.3439 13.6253L11.5759 9.15928L14.8294 5.99475C14.9179 5.90903 14.9764 5.79616 14.9944 5.67187C15.0409 5.36327 14.8249 5.07611 14.5159 5.03039L10.0189 4.37891">
    </path>
</svg>
