<svg xmlns="http://www.w3.org/2000/svg" xmlns:xlink="http://www.w3.org/1999/xlink" width="15.000732421875" height="14.287109375" viewBox="0 0 15.000732421875 14.287109375" fill="none">
    <path     fill="#DDDDDD"  d="M10.0189 4.37901L8.00888 0.31441C7.95338 0.202973 7.86338 0.112966 7.75238 0.0586759C7.47188 -0.0799062 7.13138 0.035817 6.99188 0.31441L4.98188 4.37901L0.484888 5.03049C0.361888 5.04906 0.247888 5.10621 0.160888 5.19479C-0.0566116 5.41909 -0.0536116 5.77626 0.171388 5.99485L3.42488 9.15938L2.65688 13.6254C2.63588 13.7483 2.65538 13.8755 2.71388 13.984C2.85788 14.2598 3.20138 14.3684 3.47888 14.2212L7.50038 12.1125L11.5219 14.2212C11.6329 14.2798 11.7604 14.2983 11.8819 14.2783C12.1909 14.2255 12.3979 13.934 12.3439 13.6254L11.5759 9.15938L14.8294 5.99485C14.9179 5.90913 14.9764 5.79626 14.9944 5.67197C15.0409 5.36337 14.8249 5.07621 14.5159 5.03049L10.0189 4.37901">
    </path>
</svg>
