<svg xmlns="http://www.w3.org/2000/svg" xmlns:xlink="http://www.w3.org/1999/xlink" width="16" height="16" viewBox="0 0 16 16" fill="none">
    <path d="M5.68153 8.70638C5.49525 8.57181 5.27774 8.5408 5.02935 8.61322L4.51685 8.79952C4.8896 8.83058 5.13285 8.89816 5.24669 9.0013C5.35017 9.11553 5.4073 9.35322 5.41763 9.71578L5.41763 9.76244L5.60391 10.0422L5.77469 9.93314C5.83678 9.89221 5.87322 9.85039 5.88336 9.80897C5.93527 9.68475 5.96096 9.50847 5.96096 9.28111C5.96096 9.03238 5.86783 8.84095 5.68153 8.70638Z"   fill="#EA571B" >
    </path>
    <path d="M14.1714 0L1.82859 0C0.818672 0 0 0.818672 0 1.82858L0 14.1714C0 15.1813 0.818672 16 1.82858 16L14.1714 16C15.1813 16 16 15.1813 16 14.1714L16 1.82859C16 0.818672 15.1813 0 14.1714 0ZM12.5295 5.95828L12.2967 8.7688C12.2656 9.22455 12.2708 9.62854 12.0846 9.98045C12.0224 10.0943 11.9759 10.2443 11.9448 10.4307C11.9242 10.5445 11.8983 10.7049 11.8672 10.9119C11.7534 11.5226 11.5718 11.8538 11.5511 11.9055C11.2717 12.8684 10.5782 13.4638 9.47048 13.6916C8.06273 13.9503 6.84611 13.8054 5.82134 13.2569C4.79655 12.7079 4.1545 11.9779 3.89595 11.0672C3.79242 10.736 3.78191 10.2599 3.86491 9.63848C3.88559 9.54542 3.9477 9.4312 4.05119 9.29704C4.19627 9.10039 4.27887 8.98612 4.29958 8.95508C3.99927 8.94509 3.78708 8.90334 3.66289 8.83092C3.53869 8.75883 3.44555 8.62909 3.38344 8.4428C3.32131 8.1944 3.33687 7.92512 3.43 7.63555C3.52317 7.35589 3.66289 7.1487 3.84919 7.01433C4.15986 6.79683 4.48586 6.69855 4.82758 6.7192C5.15897 6.72955 5.43839 6.8643 5.66612 7.12305C5.78016 7.25739 5.90934 7.49561 6.05423 7.83737C6.06459 7.86836 6.1372 7.97706 6.27177 8.16339L6.36491 8.13231L6.36491 7.63556C6.24069 5.64786 6.15772 4.15176 6.11633 3.14786C6.10614 2.80612 6.16308 2.55777 6.28728 2.40248C6.42164 2.25739 6.64433 2.18494 6.95502 2.18494C7.2655 2.17481 7.51389 2.25739 7.70037 2.43353C7.87631 2.60948 7.96945 2.85806 7.97981 3.17887L8.10402 8.07023C8.11434 8.13231 8.16609 8.23067 8.25928 8.36519C8.34203 8.1687 8.38347 8.06503 8.38347 8.0547L8.38347 3.17883C8.37311 2.75414 8.48178 2.46972 8.7095 2.32461C8.91681 2.20044 9.24284 2.18489 9.68794 2.27805C10.164 2.39209 10.4024 2.70758 10.4024 3.22544L10.2782 8.25648C10.2782 8.2875 10.3145 8.37551 10.3869 8.52039C10.4697 8.38583 10.5111 8.3082 10.5111 8.28751L10.806 4.15709C10.8578 3.59802 11.1217 3.33411 11.5978 3.36514C12.3123 3.3962 12.6642 3.67564 12.6538 4.20366C12.6537 4.32784 12.6127 4.91264 12.5295 5.95828Z"   fill="#EA571B" >
    </path>
</svg>
