<svg xmlns="http://www.w3.org/2000/svg" xmlns:xlink="http://www.w3.org/1999/xlink" width="16" height="16" viewBox="0 0 16 16" fill="none">
    <path d="M9.79403 1.23647C7.69319 2.23865 5.60834 3.45853 3.53948 4.89707C2.5538 5.59185 1.76155 6.23865 1.16373 6.83646C0.856822 7.14337 0.703125 7.52349 0.703125 7.97585C0.703125 8.41223 0.856822 8.7841 1.16373 9.09101L2.27887 10.0849C3.24858 10.8447 4.33948 11.5962 5.55161 12.3395C6.82822 13.1153 8.03258 13.794 9.16373 14.3758C10.5053 15.0386 11.6689 15.5153 12.6546 15.8062C13.091 15.9356 13.4949 15.8872 13.8668 15.6607C14.2546 15.4508 14.4971 15.1274 14.594 14.691C14.675 14.4161 14.7637 14.004 14.8607 13.4546C14.9902 12.6789 15.0871 11.7092 15.1516 10.5456L15.2486 7.97585C15.2161 6.2144 15.1356 4.77585 15.0062 3.66071C14.9252 2.7555 14.788 1.94775 14.594 1.23647C14.5902 1.21771 14.5859 1.19904 14.5813 1.18045C14.5767 1.16187 14.5717 1.14339 14.5663 1.12501C14.5609 1.10664 14.5551 1.08839 14.5489 1.07025C14.5428 1.05212 14.5362 1.03412 14.5293 1.01626C14.5224 0.998399 14.5151 0.980689 14.5075 0.96313C14.4999 0.945572 14.4918 0.928182 14.4835 0.910957C14.4751 0.893733 14.4664 0.876691 14.4573 0.85983C14.4482 0.842971 14.4388 0.826307 14.429 0.809838C14.4192 0.793372 14.4091 0.777116 14.3987 0.761069C14.3882 0.745024 14.3774 0.729204 14.3663 0.713607C14.3552 0.69801 14.3437 0.682652 14.332 0.667532C14.3202 0.652413 14.3082 0.637546 14.2958 0.622929C14.2834 0.608313 14.2707 0.59396 14.2578 0.579871C14.2448 0.565783 14.2315 0.551971 14.218 0.538433C14.2044 0.524899 14.1906 0.511651 14.1765 0.498691C14.1624 0.485732 14.1481 0.473072 14.1334 0.46071C14.1197 0.447835 14.1058 0.435224 14.0916 0.422876C14.0774 0.410529 14.0629 0.398452 14.0483 0.386649C14.0337 0.374848 14.0188 0.363326 14.0037 0.352083C13.9886 0.340843 13.9734 0.329891 13.9579 0.319229C13.9424 0.308566 13.9267 0.298201 13.9108 0.288132C13.8949 0.278063 13.8788 0.268298 13.8626 0.258835C13.8463 0.249374 13.8299 0.240223 13.8133 0.231382C13.7967 0.222543 13.7799 0.21402 13.763 0.205814C13.7461 0.197608 13.729 0.189724 13.7118 0.182162C13.6945 0.174602 13.6772 0.16737 13.6597 0.160465C13.6422 0.153561 13.6246 0.14699 13.6068 0.140752C13.5891 0.134514 13.5712 0.128614 13.5532 0.123051C13.5353 0.117489 13.5172 0.112267 13.499 0.107388C13.4809 0.102508 13.4626 0.097974 13.4443 0.0937847C13.4259 0.0895953 13.4075 0.0857539 13.389 0.0822606C13.3706 0.0787673 13.352 0.0756247 13.3334 0.0728327C13.091 0.0403478 12.7918 0.0810751 12.4364 0.194045C11.6607 0.420468 10.7797 0.767619 9.79403 1.23647L9.79403 1.23647ZM8.75161 3.12737L10.8849 3.12737L10.9577 3.15162L9.23645 9.33343C9.18797 9.52737 9.2607 9.62434 9.45464 9.62434L13.9637 9.62434L13.4304 11.491L6.25464 11.491L8.65464 3.22435C8.65464 3.15985 8.68712 3.12737 8.75161 3.12737Z"   fill="#FF7941" >
    </path>
</svg>
