<svg xmlns="http://www.w3.org/2000/svg" xmlns:xlink="http://www.w3.org/1999/xlink" width="32" height="32" viewBox="0 0 32 32" fill="none">
    <path d="M15.9999 27.6C16.1897 27.6 16.3795 27.5954 16.5691 27.586C16.7587 27.5767 16.948 27.5628 17.1369 27.5442C17.3258 27.5255 17.5142 27.5023 17.702 27.4744C17.8897 27.4466 18.0767 27.4142 18.2629 27.3771C18.4491 27.3401 18.6343 27.2985 18.8185 27.2524C19.0026 27.2062 19.1856 27.1556 19.3672 27.1005C19.5489 27.0454 19.7291 26.9859 19.9078 26.9219C20.0865 26.858 20.2636 26.7897 20.439 26.717C20.6144 26.6444 20.7879 26.5674 20.9595 26.4863C21.1311 26.4051 21.3007 26.3198 21.4681 26.2303C21.6355 26.1408 21.8006 26.0473 21.9635 25.9497C22.1263 25.8521 22.2867 25.7505 22.4445 25.6451C22.6024 25.5396 22.7575 25.4303 22.91 25.3172C23.0625 25.2041 23.2121 25.0874 23.3589 24.967C23.5056 24.8465 23.6493 24.7225 23.79 24.595C23.9306 24.4676 24.0681 24.3367 24.2023 24.2025C24.3366 24.0682 24.4675 23.9308 24.5949 23.7901C24.7224 23.6495 24.8464 23.5057 24.9668 23.359C25.0872 23.2122 25.204 23.0626 25.3171 22.9101C25.4302 22.7576 25.5395 22.6025 25.645 22.4446C25.7504 22.2868 25.852 22.1265 25.9495 21.9636C26.0471 21.8008 26.1407 21.6356 26.2302 21.4682C26.3197 21.3008 26.405 21.1313 26.4862 20.9596C26.5673 20.788 26.6442 20.6145 26.7169 20.4391C26.7895 20.2637 26.8578 20.0867 26.9218 19.9079C26.9858 19.7292 27.0453 19.549 27.1004 19.3673C27.1555 19.1857 27.2061 19.0027 27.2523 18.8186C27.2984 18.6344 27.34 18.4493 27.377 18.263C27.414 18.0769 27.4465 17.8899 27.4743 17.7021C27.5022 17.5143 27.5254 17.3259 27.544 17.137C27.5626 16.9481 27.5766 16.7588 27.5859 16.5692C27.5952 16.3796 27.5999 16.1899 27.5999 16C27.5999 15.8102 27.5952 15.6204 27.5859 15.4308C27.5766 15.2412 27.5626 15.052 27.544 14.863C27.5254 14.6741 27.5022 14.4857 27.4743 14.298C27.4465 14.1102 27.414 13.9232 27.377 13.737C27.34 13.5508 27.2984 13.3656 27.2523 13.1815C27.2061 12.9973 27.1555 12.8144 27.1004 12.6327C27.0453 12.4511 26.9858 12.2708 26.9218 12.0921C26.8578 11.9134 26.7895 11.7363 26.7169 11.5609C26.6442 11.3855 26.5673 11.212 26.4862 11.0404C26.405 10.8688 26.3197 10.6992 26.2302 10.5318C26.1407 10.3644 26.0471 10.1993 25.9495 10.0364C25.852 9.87358 25.7504 9.71324 25.645 9.5554C25.5395 9.39755 25.4302 9.2424 25.3171 9.0899C25.204 8.93743 25.0872 8.7878 24.9668 8.64105C24.8464 8.4943 24.7224 8.35058 24.5949 8.20993C24.4675 8.06927 24.3366 7.9318 24.2023 7.79758C24.0681 7.66333 23.9306 7.53246 23.79 7.40499C23.6493 7.27749 23.5056 7.15352 23.3589 7.03308C23.2121 6.91268 23.0625 6.7959 22.91 6.6828C22.7575 6.56971 22.6024 6.46043 22.4445 6.35496C22.2867 6.24949 22.1263 6.14796 21.9635 6.05037C21.8006 5.95277 21.6355 5.85921 21.4681 5.76974C21.3007 5.68024 21.1311 5.5949 20.9595 5.51374C20.7879 5.43258 20.6144 5.35567 20.439 5.28302C20.2636 5.21038 20.0865 5.14208 19.9078 5.07812C19.7291 5.01416 19.5489 4.95463 19.3672 4.89952C19.1856 4.8444 19.0026 4.79377 18.8185 4.74765C18.6343 4.70152 18.4491 4.65994 18.2629 4.6229C18.0767 4.58588 17.8897 4.55344 17.702 4.52559C17.5142 4.49773 17.3258 4.47449 17.1369 4.45587C16.948 4.43726 16.7587 4.4233 16.5691 4.41399C16.3795 4.40468 16.1897 4.40002 15.9999 4.40002C15.8101 4.40002 15.6203 4.40468 15.4307 4.41399C15.2411 4.4233 15.0518 4.43726 14.8629 4.45587C14.674 4.47449 14.4856 4.49773 14.2978 4.52559C14.1101 4.55344 13.9231 4.58588 13.7368 4.6229C13.5506 4.65994 13.3655 4.70152 13.1813 4.74765C12.9972 4.79377 12.8142 4.8444 12.6326 4.89952C12.4509 4.95463 12.2707 5.01416 12.092 5.07812C11.9132 5.14208 11.7362 5.21038 11.5608 5.28302C11.3854 5.35567 11.2119 5.43258 11.0403 5.51374C10.8686 5.5949 10.6991 5.68024 10.5317 5.76974C10.3643 5.85921 10.1991 5.95277 10.0363 6.05037C9.87346 6.14796 9.71312 6.24949 9.55527 6.35496C9.39743 6.46043 9.24227 6.56971 9.08977 6.6828C8.93731 6.7959 8.78768 6.91268 8.64093 7.03308C8.49418 7.15352 8.35046 7.27749 8.20981 7.40499C8.06915 7.53246 7.93168 7.66333 7.79746 7.79758C7.66321 7.9318 7.53234 8.06927 7.40487 8.20993C7.27737 8.35058 7.1534 8.4943 7.03299 8.64105C6.91256 8.7878 6.79578 8.93743 6.68268 9.0899C6.56959 9.2424 6.46031 9.39755 6.35484 9.5554C6.24937 9.71324 6.14784 9.87358 6.05024 10.0364C5.95265 10.1993 5.85909 10.3644 5.76962 10.5318C5.68012 10.6992 5.59478 10.8688 5.51362 11.0404C5.43245 11.212 5.35555 11.3855 5.2829 11.5609C5.21025 11.7363 5.14195 11.9134 5.07799 12.0921C5.01404 12.2708 4.9545 12.4511 4.8994 12.6327C4.8443 12.8144 4.79367 12.9973 4.74753 13.1815C4.7014 13.3656 4.65983 13.5508 4.62281 13.737C4.58577 13.9232 4.55332 14.1102 4.52546 14.298C4.49761 14.4857 4.47437 14.6741 4.45575 14.863C4.43714 15.052 4.42318 15.2412 4.41387 15.4308C4.40456 15.6205 4.3999 15.8102 4.3999 16C4.3999 16.1899 4.40456 16.3796 4.41387 16.5692C4.42318 16.7588 4.43714 16.9481 4.45575 17.137C4.47437 17.326 4.49761 17.5143 4.52546 17.7021C4.55332 17.8899 4.58577 18.0769 4.62281 18.263C4.65983 18.4493 4.7014 18.6344 4.74753 18.8186C4.79367 19.0027 4.8443 19.1857 4.8994 19.3673C4.9545 19.549 5.01404 19.7292 5.07799 19.9079C5.14195 20.0867 5.21025 20.2637 5.2829 20.4391C5.35555 20.6145 5.43245 20.788 5.51362 20.9596C5.59478 21.1313 5.68012 21.3008 5.76962 21.4682C5.85909 21.6356 5.95265 21.8008 6.05024 21.9636C6.14784 22.1265 6.2494 22.2868 6.35487 22.4446C6.46034 22.6025 6.56959 22.7576 6.68268 22.9101C6.79578 23.0626 6.91256 23.2122 7.03299 23.359C7.1534 23.5057 7.27737 23.6495 7.40487 23.7901C7.53237 23.9308 7.66324 24.0682 7.79746 24.2025C7.93168 24.3367 8.06915 24.4676 8.20981 24.595C8.35046 24.7225 8.49418 24.8465 8.64093 24.9669C8.78768 25.0874 8.93731 25.2041 9.08977 25.3172C9.24227 25.4303 9.39743 25.5396 9.55527 25.645C9.71312 25.7505 9.87346 25.8521 10.0363 25.9497C10.1991 26.0473 10.3643 26.1408 10.5317 26.2303C10.6991 26.3198 10.8686 26.4051 11.0403 26.4863C11.2119 26.5674 11.3854 26.6444 11.5608 26.717C11.7362 26.7897 11.9132 26.858 12.092 26.9219C12.2707 26.9859 12.4509 27.0454 12.6326 27.1005C12.8142 27.1556 12.9972 27.2062 13.1813 27.2524C13.3655 27.2985 13.5506 27.3401 13.7368 27.3771C13.9231 27.4142 14.1101 27.4466 14.2978 27.4744C14.4856 27.5023 14.674 27.5255 14.8629 27.5442C15.0518 27.5628 15.2411 27.5767 15.4307 27.586C15.6203 27.5954 15.8101 27.6 15.9999 27.6ZM15.9999 29.6C15.7773 29.6 15.5549 29.5945 15.3326 29.5836C15.1103 29.5727 14.8884 29.5563 14.6669 29.5345C14.4454 29.5127 14.2245 29.4855 14.0044 29.4528C13.7842 29.4202 13.565 29.3821 13.3467 29.3387C13.1284 29.2953 12.9113 29.2465 12.6954 29.1924C12.4795 29.1384 12.265 29.079 12.052 29.0144C11.8391 28.9498 11.6278 28.88 11.4182 28.805C11.2086 28.73 11.001 28.65 10.7954 28.5648C10.5898 28.4796 10.3864 28.3894 10.1851 28.2943C9.98393 28.1991 9.78518 28.099 9.5889 27.9941C9.39262 27.8892 9.19899 27.7795 9.00809 27.6651C8.81718 27.5507 8.62921 27.4316 8.44415 27.308C8.25909 27.1843 8.07718 27.0562 7.8984 26.9236C7.71962 26.791 7.54421 26.6542 7.37215 26.513C7.20012 26.3717 7.03162 26.2264 6.86671 26.077C6.70181 25.9275 6.54065 25.774 6.38324 25.6167C6.22587 25.4593 6.07243 25.2981 5.92296 25.1332C5.77349 24.9683 5.62815 24.7998 5.48696 24.6278C5.34575 24.4557 5.20886 24.2803 5.07628 24.1015C4.94369 23.9227 4.81557 23.7408 4.6919 23.5558C4.56825 23.3707 4.44921 23.1827 4.33478 22.9918C4.22036 22.8009 4.11069 22.6073 4.00578 22.411C3.90086 22.2147 3.80082 22.016 3.70565 21.8148C3.61049 21.6135 3.52032 21.4101 3.43515 21.2045C3.34996 20.9989 3.26988 20.7913 3.1949 20.5817C3.11992 20.3721 3.05012 20.1609 2.98551 19.9479C2.9209 19.7349 2.86156 19.5205 2.80748 19.3045C2.7534 19.0886 2.70464 18.8715 2.66122 18.6532C2.6178 18.435 2.57976 18.2157 2.5471 17.9955C2.51444 17.7754 2.48721 17.5545 2.46539 17.333C2.44357 17.1115 2.4272 16.8896 2.41628 16.6673C2.40536 16.445 2.3999 16.2226 2.3999 16C2.3999 15.7774 2.40536 15.555 2.41628 15.3327C2.4272 15.1104 2.44357 14.8885 2.46539 14.667C2.48721 14.4455 2.51444 14.2246 2.5471 14.0045C2.57976 13.7843 2.6178 13.5651 2.66122 13.3468C2.70464 13.1285 2.7534 12.9114 2.80748 12.6955C2.86156 12.4796 2.9209 12.2651 2.98551 12.0521C3.05012 11.8392 3.11992 11.6279 3.1949 11.4183C3.26988 11.2087 3.34996 11.0011 3.43515 10.7955C3.52032 10.5899 3.61049 10.3865 3.70565 10.1853C3.80082 9.98405 3.90086 9.7853 4.00578 9.58902C4.11069 9.39274 4.22036 9.19911 4.33478 9.00821C4.44921 8.8173 4.56825 8.62933 4.6919 8.44427C4.81557 8.25921 4.94369 8.0773 5.07628 7.89852C5.20886 7.71974 5.34575 7.5443 5.48696 7.37227C5.62815 7.20021 5.77349 7.03171 5.92296 6.8668C6.07243 6.7019 6.22587 6.54074 6.38324 6.38337C6.54065 6.22599 6.70178 6.07255 6.86668 5.92309C7.03162 5.77362 7.20012 5.62827 7.37215 5.48709C7.54421 5.34588 7.71962 5.20898 7.8984 5.0764C8.07718 4.94381 8.25909 4.81569 8.44415 4.69202C8.62921 4.56838 8.81718 4.44934 9.00809 4.3349C9.19899 4.22048 9.39262 4.11081 9.5889 4.0059C9.78518 3.90098 9.98393 3.80094 10.1851 3.70577C10.3864 3.61061 10.5898 3.52044 10.7954 3.43527C11.001 3.35009 11.2086 3.27 11.4182 3.19502C11.6278 3.12004 11.8391 3.05024 12.052 2.98563C12.265 2.92102 12.4795 2.86168 12.6954 2.8076C12.9113 2.75352 13.1284 2.70477 13.3467 2.66134C13.565 2.61792 13.7842 2.57988 14.0044 2.54722C14.2245 2.51457 14.4454 2.48733 14.6669 2.46551C14.8884 2.4437 15.1103 2.42733 15.3326 2.41641C15.5549 2.40548 15.7773 2.40002 15.9999 2.40002C16.2225 2.40002 16.4449 2.40548 16.6672 2.41641C16.8895 2.42733 17.1114 2.4437 17.3329 2.46551C17.5544 2.48733 17.7753 2.51457 17.9954 2.54722C18.2156 2.57988 18.4348 2.61792 18.6531 2.66134C18.8714 2.70477 19.0885 2.75352 19.3044 2.8076C19.5203 2.86168 19.7348 2.92102 19.9478 2.98563C20.1607 3.05024 20.372 3.12004 20.5816 3.19502C20.7911 3.27 20.9987 3.35009 21.2044 3.43527C21.41 3.52044 21.6134 3.61061 21.8146 3.70577C22.0159 3.80094 22.2146 3.90098 22.4109 4.0059C22.6072 4.11081 22.8008 4.22048 22.9917 4.3349C23.1826 4.44934 23.3706 4.56838 23.5556 4.69202C23.7407 4.81569 23.9226 4.94381 24.1014 5.0764C24.2802 5.20898 24.4556 5.34588 24.6276 5.48709C24.7997 5.62827 24.9682 5.77362 25.1331 5.92309C25.298 6.07255 25.4591 6.22599 25.6165 6.38337C25.7739 6.54077 25.9274 6.70193 26.0768 6.86683C26.2263 7.03174 26.3716 7.20024 26.5128 7.37227C26.654 7.54433 26.7909 7.71974 26.9235 7.89852C27.0561 8.0773 27.1842 8.25921 27.3079 8.44427C27.4315 8.62933 27.5506 8.8173 27.665 9.00821C27.7794 9.19911 27.8891 9.39274 27.994 9.58902C28.0989 9.7853 28.199 9.98405 28.2941 10.1853C28.3893 10.3865 28.4795 10.5899 28.5646 10.7955C28.6498 11.0011 28.7299 11.2087 28.8049 11.4183C28.8799 11.6279 28.9497 11.8392 29.0143 12.0521C29.0789 12.2651 29.1382 12.4796 29.1923 12.6955C29.2464 12.9114 29.2951 13.1285 29.3386 13.3468C29.382 13.5651 29.42 13.7843 29.4527 14.0045C29.4854 14.2246 29.5126 14.4455 29.5344 14.667C29.5562 14.8885 29.5726 15.1104 29.5835 15.3327C29.5944 15.555 29.5999 15.7774 29.5999 16C29.5999 16.2226 29.5944 16.445 29.5835 16.6673C29.5726 16.8896 29.5562 17.1115 29.5344 17.333C29.5126 17.5545 29.4854 17.7754 29.4527 17.9955C29.42 18.2157 29.382 18.435 29.3386 18.6532C29.2951 18.8715 29.2464 19.0886 29.1923 19.3045C29.1382 19.5205 29.0789 19.7349 29.0143 19.9479C28.9497 20.1609 28.8799 20.3721 28.8049 20.5817C28.7299 20.7913 28.6498 20.9989 28.5646 21.2045C28.4795 21.4101 28.3893 21.6135 28.2941 21.8148C28.199 22.016 28.0989 22.2147 27.994 22.411C27.8891 22.6073 27.7794 22.8009 27.665 22.9918C27.5506 23.1827 27.4315 23.3707 27.3079 23.5558C27.1842 23.7408 27.0561 23.9227 26.9235 24.1015C26.7909 24.2803 26.654 24.4557 26.5128 24.6278C26.3716 24.7998 26.2263 24.9683 26.0768 25.1332C25.9274 25.2981 25.7739 25.4593 25.6165 25.6167C25.4591 25.774 25.298 25.9275 25.1331 26.077C24.9682 26.2264 24.7997 26.3717 24.6276 26.513C24.4556 26.6542 24.2802 26.791 24.1014 26.9236C23.9226 27.0562 23.7407 27.1843 23.5556 27.308C23.3706 27.4316 23.1826 27.5507 22.9917 27.6651C22.8008 27.7795 22.6072 27.8892 22.4109 27.9941C22.2146 28.099 22.0159 28.1991 21.8146 28.2943C21.6134 28.3894 21.41 28.4796 21.2044 28.5648C20.9987 28.65 20.7911 28.73 20.5816 28.805C20.372 28.88 20.1607 28.9498 19.9478 29.0144C19.7348 29.079 19.5203 29.1384 19.3044 29.1924C19.0885 29.2465 18.8714 29.2953 18.6531 29.3387C18.4348 29.3821 18.2156 29.4202 17.9954 29.4528C17.7753 29.4855 17.5544 29.5127 17.3329 29.5345C17.1114 29.5564 16.8895 29.5727 16.6672 29.5836C16.4449 29.5945 16.2225 29.6 15.9999 29.6Z"   fill="#FFFFFF" fill-opacity="0.72">
    </path>
    <path d="M17.408 16L21.232 19.824C21.2435 19.8355 21.2548 19.8473 21.2657 19.8594C21.2767 19.8714 21.2873 19.8838 21.2977 19.8964C21.308 19.9089 21.3181 19.9218 21.3278 19.9349C21.3375 19.948 21.3469 19.9613 21.3559 19.9748C21.365 19.9884 21.3738 20.0021 21.3821 20.0161C21.3905 20.0301 21.3986 20.0443 21.4063 20.0586C21.414 20.073 21.4213 20.0876 21.4283 20.1023C21.4353 20.117 21.4419 20.1319 21.4481 20.147C21.4544 20.162 21.4602 20.1773 21.4657 20.1926C21.4712 20.2079 21.4764 20.2234 21.4811 20.239C21.4858 20.2546 21.4902 20.2703 21.4942 20.2861C21.4981 20.3019 21.5017 20.3178 21.5049 20.3338C21.5081 20.3498 21.5109 20.3659 21.5133 20.382C21.5157 20.3981 21.5177 20.4143 21.5193 20.4305C21.5209 20.4467 21.5221 20.463 21.5229 20.4793C21.5237 20.4955 21.5241 20.5119 21.5241 20.5281C21.5241 20.5444 21.5237 20.5607 21.5229 20.577C21.5222 20.5933 21.5209 20.6095 21.5194 20.6258C21.5178 20.642 21.5158 20.6582 21.5134 20.6743C21.511 20.6904 21.5082 20.7065 21.505 20.7225C21.5019 20.7384 21.4983 20.7544 21.4944 20.7702C21.4904 20.786 21.486 20.8017 21.4813 20.8173C21.4766 20.8329 21.4715 20.8484 21.466 20.8637C21.4605 20.8791 21.4546 20.8943 21.4484 20.9094C21.4422 20.9244 21.4356 20.9393 21.4286 20.954C21.4216 20.9688 21.4143 20.9833 21.4066 20.9977C21.3989 21.0121 21.3909 21.0263 21.3825 21.0403C21.3742 21.0542 21.3654 21.068 21.3564 21.0816C21.3474 21.0951 21.3379 21.1084 21.3282 21.1215C21.3185 21.1346 21.3085 21.1475 21.2982 21.1601C21.2878 21.1727 21.2772 21.185 21.2662 21.1971C21.2553 21.2092 21.244 21.221 21.2325 21.2325C21.221 21.244 21.2092 21.2553 21.1971 21.2662C21.185 21.2772 21.1727 21.2878 21.1601 21.2982C21.1475 21.3085 21.1346 21.3185 21.1215 21.3282C21.1084 21.3379 21.0951 21.3473 21.0816 21.3564C21.068 21.3654 21.0542 21.3742 21.0403 21.3825C21.0263 21.3909 21.0121 21.3989 20.9977 21.4066C20.9833 21.4143 20.9688 21.4216 20.954 21.4286C20.9393 21.4356 20.9244 21.4422 20.9094 21.4484C20.8943 21.4546 20.8791 21.4605 20.8637 21.466C20.8484 21.4715 20.8329 21.4766 20.8173 21.4813C20.8017 21.486 20.786 21.4904 20.7702 21.4944C20.7544 21.4983 20.7384 21.5019 20.7225 21.505C20.7065 21.5082 20.6904 21.511 20.6743 21.5134C20.6582 21.5158 20.642 21.5178 20.6258 21.5194C20.6095 21.5209 20.5933 21.5222 20.577 21.5229C20.5607 21.5237 20.5444 21.5241 20.5281 21.5241C20.5119 21.5241 20.4955 21.5237 20.4793 21.5229C20.463 21.5221 20.4467 21.5209 20.4305 21.5193C20.4143 21.5177 20.3981 21.5157 20.382 21.5133C20.3659 21.5109 20.3498 21.5081 20.3338 21.5049C20.3178 21.5017 20.3019 21.4981 20.2861 21.4942C20.2703 21.4902 20.2546 21.4858 20.239 21.4811C20.2234 21.4764 20.2079 21.4712 20.1926 21.4657C20.1773 21.4602 20.162 21.4544 20.147 21.4481C20.1319 21.4419 20.117 21.4353 20.1023 21.4283C20.0876 21.4213 20.073 21.414 20.0586 21.4063C20.0443 21.3986 20.0301 21.3905 20.0161 21.3821C20.0021 21.3738 19.9884 21.365 19.9748 21.3559C19.9613 21.3469 19.948 21.3375 19.9349 21.3278C19.9218 21.3181 19.9089 21.308 19.8964 21.2977C19.8838 21.2873 19.8714 21.2767 19.8594 21.2657C19.8473 21.2548 19.8355 21.2435 19.824 21.232L16 17.408L12.176 21.232C12.1645 21.2435 12.1527 21.2548 12.1406 21.2657C12.1285 21.2767 12.1162 21.2873 12.1036 21.2977C12.091 21.308 12.0782 21.3181 12.0651 21.3278C12.052 21.3375 12.0387 21.3469 12.0251 21.3559C12.0116 21.365 11.9978 21.3738 11.9838 21.3821C11.9699 21.3905 11.9557 21.3986 11.9413 21.4063C11.927 21.414 11.9124 21.4213 11.8977 21.4283C11.8829 21.4353 11.868 21.4419 11.853 21.4481C11.8379 21.4544 11.8227 21.4602 11.8074 21.4657C11.792 21.4712 11.7766 21.4764 11.761 21.4811C11.7454 21.4858 11.7296 21.4902 11.7138 21.4942C11.698 21.4981 11.6821 21.5017 11.6661 21.5049C11.6502 21.5081 11.6341 21.5109 11.618 21.5133C11.6019 21.5157 11.5857 21.5177 11.5695 21.5193C11.5532 21.5209 11.537 21.5221 11.5207 21.5229C11.5044 21.5237 11.4881 21.5241 11.4718 21.5241C11.4555 21.5241 11.4392 21.5237 11.423 21.5229C11.4067 21.5222 11.3904 21.5209 11.3742 21.5194C11.358 21.5178 11.3418 21.5158 11.3257 21.5134C11.3095 21.511 11.2935 21.5082 11.2775 21.505C11.2615 21.5019 11.2456 21.4983 11.2298 21.4944C11.214 21.4904 11.1983 21.486 11.1827 21.4813C11.1671 21.4766 11.1516 21.4715 11.1362 21.466C11.1209 21.4605 11.1057 21.4546 11.0906 21.4484C11.0755 21.4422 11.0607 21.4356 11.0459 21.4286C11.0312 21.4216 11.0166 21.4143 11.0022 21.4066C10.9879 21.3989 10.9737 21.3909 10.9597 21.3825C10.9457 21.3742 10.932 21.3654 10.9184 21.3564C10.9048 21.3474 10.8915 21.3379 10.8784 21.3282C10.8653 21.3185 10.8525 21.3085 10.8399 21.2982C10.8273 21.2878 10.8149 21.2772 10.8029 21.2662C10.7908 21.2553 10.779 21.244 10.7675 21.2325C10.7559 21.221 10.7447 21.2092 10.7337 21.1971C10.7228 21.185 10.7121 21.1727 10.7018 21.1601C10.6915 21.1475 10.6814 21.1346 10.6717 21.1215C10.662 21.1084 10.6526 21.0951 10.6436 21.0816C10.6345 21.068 10.6258 21.0542 10.6174 21.0403C10.609 21.0263 10.601 21.0121 10.5933 20.9977C10.5856 20.9834 10.5783 20.9688 10.5714 20.954C10.5644 20.9393 10.5578 20.9244 10.5515 20.9094C10.5453 20.8943 10.5395 20.8791 10.534 20.8637C10.5285 20.8484 10.5234 20.8329 10.5186 20.8173C10.5139 20.8017 10.5096 20.786 10.5056 20.7702C10.5017 20.7544 10.4981 20.7384 10.4949 20.7225C10.4917 20.7065 10.489 20.6904 10.4866 20.6743C10.4842 20.6582 10.4822 20.642 10.4806 20.6258C10.479 20.6095 10.4778 20.5933 10.477 20.577C10.4762 20.5607 10.4758 20.5444 10.4758 20.5281C10.4759 20.5119 10.4763 20.4955 10.477 20.4793C10.4779 20.463 10.4791 20.4467 10.4807 20.4305C10.4823 20.4143 10.4843 20.3981 10.4867 20.382C10.4891 20.3659 10.4919 20.3498 10.495 20.3338C10.4982 20.3178 10.5018 20.3019 10.5058 20.2861C10.5098 20.2703 10.5141 20.2546 10.5189 20.239C10.5236 20.2234 10.5287 20.2079 10.5342 20.1926C10.5397 20.1773 10.5456 20.162 10.5518 20.147C10.5581 20.1319 10.5647 20.117 10.5717 20.1023C10.5787 20.0876 10.586 20.073 10.5937 20.0586C10.6014 20.0443 10.6094 20.0301 10.6178 20.0161C10.6262 20.0021 10.6349 19.9884 10.644 19.9748C10.6531 19.9613 10.6625 19.948 10.6722 19.9349C10.6819 19.9218 10.6919 19.9089 10.7023 19.8964C10.7126 19.8838 10.7233 19.8714 10.7342 19.8594C10.7452 19.8473 10.7564 19.8355 10.768 19.824L14.592 16L10.768 12.176C10.7564 12.1645 10.7452 12.1527 10.7342 12.1406C10.7233 12.1285 10.7126 12.1162 10.7023 12.1036C10.6919 12.091 10.6819 12.0782 10.6722 12.0651C10.6625 12.052 10.6531 12.0387 10.644 12.0251C10.6349 12.0116 10.6262 11.9978 10.6178 11.9838C10.6094 11.9699 10.6014 11.9557 10.5937 11.9413C10.586 11.927 10.5787 11.9124 10.5717 11.8977C10.5647 11.8829 10.5581 11.868 10.5518 11.853C10.5456 11.8379 10.5397 11.8227 10.5342 11.8074C10.5287 11.792 10.5236 11.7766 10.5189 11.761C10.5141 11.7454 10.5098 11.7296 10.5058 11.7138C10.5018 11.698 10.4982 11.6821 10.495 11.6661C10.4919 11.6502 10.4891 11.6341 10.4867 11.618C10.4843 11.6019 10.4823 11.5857 10.4807 11.5695C10.4791 11.5532 10.4779 11.537 10.477 11.5207C10.4762 11.5044 10.4758 11.4881 10.4758 11.4718C10.4758 11.4555 10.4762 11.4392 10.477 11.423C10.4778 11.4067 10.479 11.3904 10.4806 11.3742C10.4822 11.358 10.4842 11.3418 10.4865 11.3257C10.4889 11.3095 10.4917 11.2935 10.4949 11.2775C10.4981 11.2615 10.5017 11.2456 10.5056 11.2298C10.5096 11.214 10.5139 11.1983 10.5186 11.1827C10.5234 11.1671 10.5285 11.1516 10.534 11.1362C10.5395 11.1209 10.5453 11.1057 10.5515 11.0906C10.5578 11.0755 10.5644 11.0607 10.5714 11.0459C10.5783 11.0312 10.5856 11.0166 10.5933 11.0022C10.601 10.9879 10.609 10.9737 10.6174 10.9597C10.6258 10.9457 10.6345 10.932 10.6436 10.9184C10.6526 10.9048 10.662 10.8915 10.6717 10.8784C10.6814 10.8653 10.6915 10.8525 10.7018 10.8399C10.7121 10.8273 10.7228 10.8149 10.7337 10.8029C10.7447 10.7908 10.7559 10.779 10.7675 10.7675C10.779 10.7559 10.7908 10.7447 10.8029 10.7337C10.8149 10.7228 10.8273 10.7121 10.8399 10.7018C10.8525 10.6915 10.8653 10.6814 10.8784 10.6717C10.8915 10.662 10.9048 10.6526 10.9184 10.6436C10.932 10.6345 10.9457 10.6258 10.9597 10.6174C10.9737 10.609 10.9879 10.601 11.0022 10.5933C11.0166 10.5856 11.0312 10.5783 11.0459 10.5714C11.0607 10.5644 11.0755 10.5578 11.0906 10.5515C11.1057 10.5453 11.1209 10.5395 11.1362 10.534C11.1516 10.5285 11.1671 10.5234 11.1827 10.5186C11.1983 10.5139 11.214 10.5096 11.2298 10.5056C11.2456 10.5017 11.2615 10.4981 11.2775 10.4949C11.2935 10.4917 11.3095 10.4889 11.3257 10.4865C11.3418 10.4842 11.358 10.4822 11.3742 10.4806C11.3904 10.479 11.4067 10.4778 11.423 10.477C11.4392 10.4762 11.4555 10.4758 11.4718 10.4758C11.4881 10.4758 11.5044 10.4762 11.5207 10.477C11.537 10.4779 11.5532 10.4791 11.5695 10.4807C11.5857 10.4823 11.6019 10.4843 11.618 10.4867C11.6341 10.4891 11.6502 10.4919 11.6661 10.495C11.6821 10.4982 11.698 10.5018 11.7138 10.5058C11.7296 10.5098 11.7454 10.5141 11.761 10.5189C11.7766 10.5236 11.792 10.5287 11.8074 10.5342C11.8227 10.5397 11.8379 10.5456 11.853 10.5518C11.868 10.5581 11.8829 10.5647 11.8977 10.5717C11.9124 10.5787 11.927 10.586 11.9413 10.5937C11.9557 10.6014 11.9699 10.6094 11.9838 10.6178C11.9978 10.6262 12.0116 10.6349 12.0251 10.644C12.0387 10.6531 12.052 10.6625 12.0651 10.6722C12.0782 10.6819 12.091 10.6919 12.1036 10.7023C12.1162 10.7126 12.1285 10.7233 12.1406 10.7342C12.1527 10.7452 12.1645 10.7564 12.176 10.768L16 14.592L19.824 10.768C19.8355 10.7564 19.8473 10.7452 19.8594 10.7342C19.8714 10.7233 19.8838 10.7126 19.8964 10.7023C19.9089 10.6919 19.9218 10.6819 19.9349 10.6722C19.948 10.6625 19.9613 10.6531 19.9748 10.644C19.9884 10.6349 20.0021 10.6262 20.0161 10.6178C20.0301 10.6094 20.0443 10.6014 20.0586 10.5937C20.073 10.586 20.0876 10.5787 20.1023 10.5717C20.117 10.5647 20.1319 10.5581 20.147 10.5518C20.162 10.5456 20.1773 10.5397 20.1926 10.5342C20.2079 10.5287 20.2234 10.5236 20.239 10.5189C20.2546 10.5141 20.2703 10.5098 20.2861 10.5058C20.3019 10.5018 20.3178 10.4982 20.3338 10.495C20.3498 10.4919 20.3659 10.4891 20.382 10.4867C20.3981 10.4843 20.4143 10.4823 20.4305 10.4807C20.4467 10.4791 20.463 10.4779 20.4793 10.477C20.4955 10.4763 20.5119 10.4759 20.5281 10.4758C20.5444 10.4758 20.5607 10.4762 20.577 10.477C20.5933 10.4778 20.6095 10.479 20.6258 10.4806C20.642 10.4822 20.6582 10.4842 20.6743 10.4866C20.6904 10.489 20.7065 10.4917 20.7225 10.4949C20.7384 10.4981 20.7544 10.5017 20.7702 10.5056C20.786 10.5096 20.8017 10.5139 20.8173 10.5186C20.8329 10.5234 20.8484 10.5285 20.8637 10.534C20.8791 10.5395 20.8943 10.5453 20.9094 10.5515C20.9244 10.5578 20.9393 10.5644 20.954 10.5714C20.9688 10.5783 20.9833 10.5856 20.9977 10.5933C21.0121 10.601 21.0263 10.609 21.0403 10.6174C21.0542 10.6258 21.068 10.6345 21.0816 10.6436C21.0951 10.6526 21.1084 10.662 21.1215 10.6717C21.1346 10.6814 21.1475 10.6915 21.1601 10.7018C21.1727 10.7121 21.185 10.7228 21.1971 10.7337C21.2092 10.7447 21.221 10.7559 21.2325 10.7675C21.244 10.779 21.2553 10.7908 21.2662 10.8029C21.2772 10.8149 21.2878 10.8273 21.2982 10.8399C21.3085 10.8525 21.3185 10.8653 21.3282 10.8784C21.3379 10.8915 21.3473 10.9048 21.3564 10.9184C21.3654 10.932 21.3742 10.9457 21.3825 10.9597C21.3909 10.9737 21.3989 10.9879 21.4066 11.0022C21.4143 11.0166 21.4216 11.0312 21.4286 11.0459C21.4356 11.0607 21.4422 11.0755 21.4484 11.0906C21.4546 11.1057 21.4605 11.1209 21.466 11.1362C21.4715 11.1516 21.4766 11.1671 21.4813 11.1827C21.486 11.1983 21.4904 11.214 21.4944 11.2298C21.4983 11.2456 21.5019 11.2615 21.505 11.2775C21.5082 11.2935 21.511 11.3095 21.5134 11.3257C21.5158 11.3418 21.5178 11.358 21.5194 11.3742C21.5209 11.3904 21.5222 11.4067 21.5229 11.423C21.5237 11.4392 21.5241 11.4555 21.5241 11.4718C21.5241 11.4881 21.5237 11.5044 21.5229 11.5207C21.5221 11.537 21.5209 11.5532 21.5193 11.5695C21.5177 11.5857 21.5157 11.6019 21.5133 11.618C21.5109 11.6341 21.5081 11.6502 21.5049 11.6661C21.5017 11.6821 21.4981 11.698 21.4942 11.7138C21.4902 11.7296 21.4858 11.7454 21.4811 11.761C21.4764 11.7766 21.4712 11.792 21.4657 11.8074C21.4602 11.8227 21.4544 11.8379 21.4481 11.853C21.4419 11.868 21.4353 11.8829 21.4283 11.8977C21.4213 11.9124 21.414 11.927 21.4063 11.9413C21.3986 11.9557 21.3905 11.9699 21.3821 11.9838C21.3738 11.9978 21.365 12.0116 21.3559 12.0251C21.3469 12.0387 21.3375 12.052 21.3278 12.0651C21.3181 12.0782 21.308 12.091 21.2977 12.1036C21.2873 12.1162 21.2767 12.1285 21.2657 12.1406C21.2548 12.1527 21.2435 12.1645 21.232 12.176L17.408 16Z"   fill="#FFFFFF" fill-opacity="0.72">
    </path>
</svg>
