<svg xmlns="http://www.w3.org/2000/svg" xmlns:xlink="http://www.w3.org/1999/xlink" width="16" height="16" viewBox="0 0 16 16" fill="none">
    <g opacity="0.25">
        <g opacity="0">
            <rect x="0" y="0" width="16" height="16"   fill="#000000" >
            </rect>
        </g>
        <path d="M11.125 6.4375C11.125 7.48438 10.7844 8.47969 10.1547 9.29375L14.2125 13.3516C14.2625 13.4016 14.2625 13.4828 14.2125 13.5328L13.5312 14.2125C13.4812 14.2625 13.4 14.2625 13.35 14.2125L9.29219 10.1562C8.47812 10.7844 7.48438 11.125 6.4375 11.125C5.18437 11.125 4.00781 10.6375 3.12344 9.75156C2.23906 8.86719 1.75 7.68906 1.75 6.4375C1.75 5.18437 2.2375 4.00781 3.12344 3.12344C4.00781 2.23906 5.18594 1.75 6.4375 1.75C7.68906 1.75 8.86719 2.2375 9.75156 3.12344C10.6359 4.00938 11.125 5.18437 11.125 6.4375ZM8.9125 3.9625C9.57344 4.625 9.9375 5.50313 9.9375 6.4375C9.9375 7.37187 9.57344 8.25156 8.9125 8.9125C8.25 9.57344 7.37187 9.9375 6.4375 9.9375C5.50313 9.9375 4.625 9.57344 3.9625 8.9125C3.30156 8.25 2.9375 7.37187 2.9375 6.4375C2.9375 5.50313 3.30156 4.62344 3.9625 3.9625C4.625 3.30156 5.50313 2.9375 6.4375 2.9375C7.37187 2.9375 8.25156 3.3 8.9125 3.9625Z" fill-rule="evenodd"  fill="#000000" >
        </path>
    </g>
</svg>

