<svg xmlns="http://www.w3.org/2000/svg" xmlns:xlink="http://www.w3.org/1999/xlink" width="16" height="16" viewBox="0 0 16 16" fill="none">
    <path d="M2.66667 1.89592e-14C2.62303 -5.20252e-09 2.57941 0.0010707 2.53581 0.00321211C2.49223 0.00535352 2.44872 0.00856305 2.40528 0.0128407C2.36186 0.0171183 2.31856 0.0224591 2.27539 0.0288627C2.23222 0.0352663 2.18922 0.042725 2.14642 0.0512392C2.10363 0.0597534 2.06105 0.0693125 2.01872 0.0799166C1.97639 0.0905208 1.93434 0.102157 1.89258 0.114826C1.85081 0.127494 1.80939 0.14118 1.7683 0.155882C1.7272 0.170584 1.6865 0.186286 1.64617 0.202988C1.60586 0.219689 1.56597 0.237369 1.52652 0.256028C1.48707 0.274687 1.4481 0.294303 1.40961 0.314877C1.37112 0.33545 1.33316 0.356955 1.29573 0.379391C1.25829 0.401827 1.22143 0.425169 1.18515 0.449414C1.14886 0.473659 1.11319 0.498781 1.07814 0.52478C1.04308 0.550778 1.00869 0.577619 0.974952 0.605305C0.941216 0.632991 0.90818 0.661489 0.875842 0.690797C0.843506 0.720105 0.811908 0.750189 0.781048 0.781048C0.750189 0.811908 0.720105 0.843506 0.690797 0.875842C0.661489 0.908178 0.632992 0.941216 0.605306 0.974952C0.57762 1.00869 0.550778 1.04308 0.52478 1.07813C0.498783 1.11319 0.473661 1.14886 0.449414 1.18515C0.425169 1.22143 0.401827 1.25829 0.379391 1.29573C0.356955 1.33316 0.33545 1.37112 0.314877 1.40961C0.294303 1.4481 0.274687 1.48707 0.256028 1.52652C0.237369 1.56597 0.219689 1.60586 0.202988 1.64617C0.186286 1.6865 0.170584 1.7272 0.155882 1.7683C0.14118 1.80939 0.127494 1.85081 0.114826 1.89258C0.102157 1.93434 0.0905208 1.97639 0.0799167 2.01872C0.0693125 2.06105 0.0597534 2.10363 0.0512392 2.14642C0.0427252 2.18922 0.0352663 2.23222 0.0288627 2.27539C0.0224591 2.31856 0.0171184 2.36186 0.0128407 2.40528C0.00856306 2.44872 0.00535353 2.49223 0.00321211 2.53581C0.0010707 2.57941 0 2.62303 0 2.66667L0 13.3333C0 13.4027 0.00266667 13.4713 0.008 13.54L0.008 10.88L3.31533 9.38733L4.26067 4.16L2.922 4.79333L3.23667 2.81333C3.23667 2.81333 6.78067 2.1 7.88333 2.1L6.78067 8.12C7.41994 7.86514 8.06389 7.62269 8.7125 7.39267C9.36112 7.16266 10.0139 6.94522 10.671 6.74038C11.328 6.53553 11.9887 6.34344 12.6531 6.16409C13.3175 5.98473 13.9852 5.81827 14.656 5.66467L14.4193 6.61533C14.4193 6.61533 11.348 7.566 9.53667 8.754L9.694 8.992C9.694 8.992 12.608 7.40733 12.9233 9.388C12.9233 9.388 13.3167 10.2593 12.2933 11.4473C12.2933 11.4473 10.1667 13.586 6.78 14.6553C6.784 14.6353 6.80333 14.452 6.822 14.2707L6.85933 13.9033C6.85933 13.9033 10.088 12.4767 10.9547 10.4967C10.9547 10.4967 11.348 8.992 9.37933 9.86333C9.3258 9.89278 9.27306 9.92359 9.22114 9.9558C9.16922 9.988 9.11816 10.0215 9.06797 10.0564C9.0178 10.0912 8.96855 10.1274 8.92025 10.1648C8.87195 10.2022 8.82466 10.2408 8.77836 10.2807C8.73208 10.3206 8.68686 10.3617 8.6427 10.4039C8.59856 10.4461 8.55553 10.4895 8.51364 10.534C8.47175 10.5784 8.43103 10.624 8.39152 10.6706C8.352 10.7172 8.31372 10.7647 8.27667 10.8133L7.48933 10.4967C7.48933 10.4967 7.804 9.388 7.962 9.23L6.38667 9.942L5.678 13.982L4.81133 14.298L5.20533 10.5753C5.20533 10.5753 1.51533 12.542 0.0146666 13.614C0.0189516 13.6545 0.0241611 13.6949 0.030295 13.7351C0.0364289 13.7753 0.0434809 13.8154 0.0514509 13.8554C0.0594208 13.8953 0.0683005 13.935 0.0780898 13.9745C0.0878791 14.014 0.0985678 14.0533 0.110156 14.0923C0.121744 14.1314 0.134219 14.1701 0.147582 14.2086C0.160945 14.247 0.175181 14.2852 0.190289 14.323C0.205398 14.3608 0.221366 14.3982 0.238189 14.4353C0.255013 14.4724 0.272677 14.509 0.29118 14.5453C0.309684 14.5816 0.329008 14.6174 0.349152 14.6528C0.369297 14.6882 0.390241 14.723 0.411983 14.7575C0.433725 14.7919 0.456244 14.8258 0.479539 14.8592C0.502834 14.8926 0.526883 14.9254 0.551683 14.9577C0.576483 14.99 0.602008 15.0217 0.628259 15.0528C0.654511 15.0839 0.681463 15.1144 0.709111 15.1443C0.736759 15.1742 0.765078 15.2034 0.794066 15.232C0.823053 15.2606 0.85268 15.2885 0.882947 15.3158C0.913212 15.343 0.944086 15.3695 0.975567 15.3953C1.00705 15.4211 1.0391 15.4462 1.07173 15.4706C1.10436 15.4949 1.13753 15.5185 1.17124 15.5413C1.20495 15.5642 1.23917 15.5862 1.27389 15.6075C1.30861 15.6287 1.3438 15.6492 1.37945 15.6689C1.41511 15.6884 1.4512 15.7073 1.48772 15.7253C1.52424 15.7433 1.56115 15.7605 1.59845 15.7767C1.63575 15.7931 1.67341 15.8086 1.71142 15.8231C1.74944 15.8377 1.78777 15.8514 1.82641 15.8642C1.86505 15.877 1.90395 15.8889 1.94314 15.9C1.98233 15.9111 2.02175 15.9213 2.06141 15.9305C2.10105 15.9397 2.14089 15.948 2.18092 15.9555C2.22095 15.9628 2.26114 15.9694 2.30147 15.9748C2.3418 15.9805 2.38222 15.9852 2.42277 15.9889C2.46331 15.9925 2.50392 15.9953 2.54459 15.9972C2.58527 15.9991 2.62595 16 2.66667 16L13.3333 16C13.377 16 13.4206 15.9989 13.4642 15.9967C13.5078 15.9947 13.5513 15.9914 13.5947 15.9872C13.6381 15.983 13.6814 15.9775 13.7246 15.9711C13.7678 15.9647 13.8108 15.9573 13.8536 15.9487C13.8964 15.9402 13.939 15.9306 13.9813 15.9202C14.0236 15.9095 14.0657 15.8978 14.1074 15.8852C14.1492 15.8725 14.1906 15.8588 14.2317 15.8441C14.2728 15.8294 14.3135 15.8138 14.3538 15.797C14.3941 15.7803 14.434 15.7627 14.4735 15.7439C14.5129 15.7253 14.5519 15.7056 14.5904 15.6852C14.6289 15.6645 14.6668 15.643 14.7043 15.6206C14.7417 15.5982 14.7786 15.5748 14.8149 15.5506C14.8511 15.5263 14.8868 15.5012 14.9219 15.4752C14.9569 15.4492 14.9913 15.4224 15.025 15.3947C15.0588 15.367 15.0918 15.3385 15.1242 15.3092C15.1565 15.2799 15.1881 15.2498 15.219 15.219C15.2498 15.1881 15.2799 15.1565 15.3092 15.1242C15.3385 15.0918 15.367 15.0588 15.3947 15.025C15.4224 14.9913 15.4492 14.9569 15.4752 14.9219C15.5012 14.8868 15.5263 14.8511 15.5506 14.8149C15.5748 14.7786 15.5982 14.7417 15.6206 14.7043C15.643 14.6668 15.6645 14.6289 15.6852 14.5904C15.7056 14.5519 15.7253 14.5129 15.7439 14.4735C15.7627 14.434 15.7803 14.3941 15.797 14.3538C15.8138 14.3135 15.8294 14.2728 15.8441 14.2317C15.8588 14.1906 15.8725 14.1492 15.8852 14.1074C15.8978 14.0657 15.9095 14.0236 15.9202 13.9813C15.9306 13.939 15.9402 13.8964 15.9487 13.8536C15.9573 13.8108 15.9647 13.7678 15.9711 13.7246C15.9775 13.6814 15.983 13.6381 15.9872 13.5947C15.9914 13.5513 15.9947 13.5078 15.9967 13.4642C15.9989 13.4206 16 13.377 16 13.3333L16 2.66667C16 2.62303 15.9989 2.57941 15.9967 2.53581C15.9947 2.49223 15.9914 2.44872 15.9872 2.40528C15.983 2.36186 15.9775 2.31856 15.9711 2.27539C15.9647 2.23222 15.9573 2.18922 15.9487 2.14642C15.9402 2.10363 15.9306 2.06105 15.9202 2.01872C15.9095 1.97639 15.8978 1.93434 15.8852 1.89258C15.8725 1.85081 15.8588 1.80939 15.8441 1.7683C15.8294 1.7272 15.8138 1.6865 15.797 1.64617C15.7803 1.60586 15.7627 1.56597 15.7439 1.52652C15.7253 1.48707 15.7056 1.4481 15.6852 1.40961C15.6645 1.37112 15.643 1.33316 15.6206 1.29573C15.5982 1.25829 15.5748 1.22143 15.5506 1.18515C15.5263 1.14886 15.5012 1.11319 15.4752 1.07813C15.4492 1.04308 15.4224 1.00869 15.3947 0.974952C15.367 0.941216 15.3385 0.908178 15.3092 0.875842C15.2799 0.843506 15.2498 0.811908 15.219 0.781048C15.1881 0.750189 15.1565 0.720105 15.1242 0.690797C15.0918 0.661489 15.0588 0.632991 15.025 0.605305C14.9913 0.577619 14.9569 0.550778 14.9219 0.52478C14.8868 0.498781 14.8511 0.473659 14.8149 0.449414C14.7786 0.425169 14.7417 0.401827 14.7043 0.379391C14.6668 0.356955 14.6289 0.33545 14.5904 0.314877C14.5519 0.294303 14.5129 0.274687 14.4735 0.256028C14.434 0.237369 14.3941 0.219689 14.3538 0.202988C14.3135 0.186286 14.2728 0.170584 14.2317 0.155882C14.1906 0.14118 14.1492 0.127494 14.1074 0.114826C14.0657 0.102157 14.0236 0.0905208 13.9813 0.0799167C13.939 0.0693125 13.8964 0.0597534 13.8536 0.0512392C13.8108 0.0427252 13.7678 0.0352663 13.7246 0.0288627C13.6814 0.0224591 13.6381 0.0171184 13.5947 0.0128407C13.5513 0.00856306 13.5078 0.00535353 13.4642 0.00321211C13.4206 0.0010707 13.377 1.89592e-14 13.3333 1.89592e-14L2.66667 1.89592e-14ZM12.5293 1.86267C12.5293 1.86267 14.3407 1.62467 13.632 3.68467L12.6867 5.82333L7.25333 7.48667C7.25333 7.48667 8.11933 2.17933 8.27667 2.02133L10.0093 1.86267L9.77333 2.41667L10.6393 2.17933L11.1907 0.674667L13.0807 0.674667L12.5293 1.86267ZM12.8147 3.526C12.8147 3.526 13.238 2.65467 11.978 3.05067L11.5847 3.764L12.8147 3.526ZM12.5293 4.31867L11.1907 4.714L10.954 5.42733L12.214 5.11067L12.5293 4.31867ZM10.088 4.16L10.2453 3.52667L9.222 3.764L9.064 4.39733L10.088 4.16ZM9.61533 5.744L9.77333 5.18933L8.67067 5.58533L8.592 6.06067L9.61533 5.744ZM6.072 4.39733L6.22933 3.44667L5.59933 3.68467L5.442 4.556L6.072 4.39733ZM5.75667 6.37733L5.914 5.50667L5.04733 5.744L4.812 6.69467L5.75667 6.37733ZM5.52067 8.51667L5.59933 7.48667L4.50067 8.04133L4.26467 8.992L5.52067 8.51667Z"   fill="#0038F5" >
    </path>
</svg>
